<mxfile host="Electron" agent="Mozilla/5.0 (Windows NT 10.0; Win64; x64) AppleWebKit/537.36 (KHTML, like Gecko) draw.io/26.0.16 Chrome/132.0.6834.196 Electron/34.2.0 Safari/537.36" version="26.0.16" pages="3">
  <diagram name="Production Deploy" id="X66Ec2NDaHGACkjrY-Zp">
    <mxGraphModel dx="1562" dy="1037" grid="1" gridSize="10" guides="1" tooltips="1" connect="1" arrows="1" fold="1" page="1" pageScale="1" pageWidth="850" pageHeight="1100" math="0" shadow="0">
      <root>
        <mxCell id="0" />
        <mxCell id="1" parent="0" />
        <mxCell id="6GDuDkmjpouxbK1F96pP-3" style="edgeStyle=orthogonalEdgeStyle;rounded=0;orthogonalLoop=1;jettySize=auto;html=1;entryX=0;entryY=0.5;entryDx=0;entryDy=0;shape=flexArrow;endWidth=10.952380952380953;endSize=4.333333333333333;" parent="1" source="6GDuDkmjpouxbK1F96pP-1" target="6GDuDkmjpouxbK1F96pP-2" edge="1">
          <mxGeometry relative="1" as="geometry" />
        </mxCell>
        <mxCell id="6GDuDkmjpouxbK1F96pP-4" value="POST: /Deploy" style="edgeLabel;html=1;align=center;verticalAlign=middle;resizable=0;points=[];" parent="6GDuDkmjpouxbK1F96pP-3" vertex="1" connectable="0">
          <mxGeometry x="-0.0667" y="-1" relative="1" as="geometry">
            <mxPoint y="9" as="offset" />
          </mxGeometry>
        </mxCell>
        <mxCell id="6GDuDkmjpouxbK1F96pP-1" value="Client" style="rounded=1;whiteSpace=wrap;html=1;" parent="1" vertex="1">
          <mxGeometry x="240" y="440" width="160" height="80" as="geometry" />
        </mxCell>
        <mxCell id="6GDuDkmjpouxbK1F96pP-34" style="edgeStyle=orthogonalEdgeStyle;rounded=0;orthogonalLoop=1;jettySize=auto;html=1;entryX=0;entryY=0.5;entryDx=0;entryDy=0;" parent="1" source="6GDuDkmjpouxbK1F96pP-2" target="6GDuDkmjpouxbK1F96pP-33" edge="1">
          <mxGeometry relative="1" as="geometry">
            <Array as="points">
              <mxPoint x="630" y="650" />
            </Array>
          </mxGeometry>
        </mxCell>
        <mxCell id="6GDuDkmjpouxbK1F96pP-2" value="Orchestrator" style="rounded=1;whiteSpace=wrap;html=1;" parent="1" vertex="1">
          <mxGeometry x="550" y="440" width="160" height="80" as="geometry" />
        </mxCell>
        <mxCell id="6GDuDkmjpouxbK1F96pP-7" style="edgeStyle=orthogonalEdgeStyle;rounded=0;orthogonalLoop=1;jettySize=auto;html=1;entryX=0;entryY=0.5;entryDx=0;entryDy=0;shape=flexArrow;endWidth=10.952380952380953;endSize=4.333333333333333;" parent="1" edge="1">
          <mxGeometry relative="1" as="geometry">
            <mxPoint x="710" y="479.83" as="sourcePoint" />
            <mxPoint x="860" y="479.83" as="targetPoint" />
          </mxGeometry>
        </mxCell>
        <mxCell id="6GDuDkmjpouxbK1F96pP-8" value="POST: /Build" style="edgeLabel;html=1;align=center;verticalAlign=middle;resizable=0;points=[];" parent="6GDuDkmjpouxbK1F96pP-7" vertex="1" connectable="0">
          <mxGeometry x="-0.0667" y="-1" relative="1" as="geometry">
            <mxPoint x="50" y="-51" as="offset" />
          </mxGeometry>
        </mxCell>
        <mxCell id="6GDuDkmjpouxbK1F96pP-31" style="edgeStyle=orthogonalEdgeStyle;rounded=0;orthogonalLoop=1;jettySize=auto;html=1;shape=flexArrow;entryX=0;entryY=0.5;entryDx=0;entryDy=0;" parent="1" source="6GDuDkmjpouxbK1F96pP-9" target="6GDuDkmjpouxbK1F96pP-28" edge="1">
          <mxGeometry relative="1" as="geometry" />
        </mxCell>
        <mxCell id="6GDuDkmjpouxbK1F96pP-9" value="Forge&lt;br&gt;(Busy)" style="rounded=1;whiteSpace=wrap;html=1;" parent="1" vertex="1">
          <mxGeometry x="860" y="440" width="160" height="80" as="geometry" />
        </mxCell>
        <mxCell id="6GDuDkmjpouxbK1F96pP-13" value="App Src" style="verticalLabelPosition=bottom;html=1;verticalAlign=top;align=center;strokeColor=none;fillColor=#00BEF2;shape=mxgraph.azure.cloud_service_package_file;" parent="1" vertex="1">
          <mxGeometry x="450" y="510" width="42.5" height="50" as="geometry" />
        </mxCell>
        <mxCell id="6GDuDkmjpouxbK1F96pP-15" value="App Src" style="verticalLabelPosition=bottom;html=1;verticalAlign=top;align=center;strokeColor=none;fillColor=#00BEF2;shape=mxgraph.azure.cloud_service_package_file;" parent="1" vertex="1">
          <mxGeometry x="970" y="450" width="42.5" height="50" as="geometry" />
        </mxCell>
        <mxCell id="6GDuDkmjpouxbK1F96pP-30" style="edgeStyle=orthogonalEdgeStyle;rounded=0;orthogonalLoop=1;jettySize=auto;html=1;shape=flexArrow;entryX=0;entryY=0.5;entryDx=0;entryDy=0;" parent="1" source="6GDuDkmjpouxbK1F96pP-24" target="6GDuDkmjpouxbK1F96pP-29" edge="1">
          <mxGeometry relative="1" as="geometry" />
        </mxCell>
        <mxCell id="6GDuDkmjpouxbK1F96pP-24" value="Forge&lt;br&gt;(Busy)" style="rounded=1;whiteSpace=wrap;html=1;" parent="1" vertex="1">
          <mxGeometry x="860" y="330" width="160" height="80" as="geometry" />
        </mxCell>
        <mxCell id="6GDuDkmjpouxbK1F96pP-25" style="edgeStyle=orthogonalEdgeStyle;rounded=0;orthogonalLoop=1;jettySize=auto;html=1;shape=flexArrow;endWidth=10.952380952380953;endSize=4.333333333333333;exitX=1;exitY=0.5;exitDx=0;exitDy=0;entryX=0;entryY=0.5;entryDx=0;entryDy=0;" parent="1" source="6GDuDkmjpouxbK1F96pP-2" target="6GDuDkmjpouxbK1F96pP-24" edge="1">
          <mxGeometry relative="1" as="geometry">
            <mxPoint x="710" y="484.83" as="sourcePoint" />
            <mxPoint x="830" y="370" as="targetPoint" />
            <Array as="points">
              <mxPoint x="780" y="480" />
              <mxPoint x="780" y="370" />
              <mxPoint x="860" y="370" />
            </Array>
          </mxGeometry>
        </mxCell>
        <mxCell id="6GDuDkmjpouxbK1F96pP-27" value="App Src" style="verticalLabelPosition=bottom;html=1;verticalAlign=top;align=center;strokeColor=none;fillColor=#00BEF2;shape=mxgraph.azure.cloud_service_package_file;" parent="1" vertex="1">
          <mxGeometry x="970" y="339.38" width="42.5" height="50" as="geometry" />
        </mxCell>
        <mxCell id="6GDuDkmjpouxbK1F96pP-70" style="edgeStyle=orthogonalEdgeStyle;rounded=0;orthogonalLoop=1;jettySize=auto;html=1;entryX=0.5;entryY=0;entryDx=0;entryDy=0;dashed=1;" parent="1" source="6GDuDkmjpouxbK1F96pP-28" target="6GDuDkmjpouxbK1F96pP-37" edge="1">
          <mxGeometry relative="1" as="geometry" />
        </mxCell>
        <mxCell id="6GDuDkmjpouxbK1F96pP-71" style="edgeStyle=orthogonalEdgeStyle;rounded=0;orthogonalLoop=1;jettySize=auto;html=1;dashed=1;" parent="1" source="6GDuDkmjpouxbK1F96pP-28" target="6GDuDkmjpouxbK1F96pP-38" edge="1">
          <mxGeometry relative="1" as="geometry" />
        </mxCell>
        <mxCell id="6GDuDkmjpouxbK1F96pP-72" style="edgeStyle=orthogonalEdgeStyle;rounded=0;orthogonalLoop=1;jettySize=auto;html=1;dashed=1;" parent="1" source="6GDuDkmjpouxbK1F96pP-28" target="6GDuDkmjpouxbK1F96pP-39" edge="1">
          <mxGeometry relative="1" as="geometry" />
        </mxCell>
        <mxCell id="6GDuDkmjpouxbK1F96pP-73" style="edgeStyle=orthogonalEdgeStyle;rounded=0;orthogonalLoop=1;jettySize=auto;html=1;dashed=1;" parent="1" source="6GDuDkmjpouxbK1F96pP-28" target="6GDuDkmjpouxbK1F96pP-40" edge="1">
          <mxGeometry relative="1" as="geometry" />
        </mxCell>
        <mxCell id="6GDuDkmjpouxbK1F96pP-28" value="Helix Registry" style="rounded=1;whiteSpace=wrap;html=1;" parent="1" vertex="1">
          <mxGeometry x="1080" y="440" width="160" height="80" as="geometry" />
        </mxCell>
        <mxCell id="6GDuDkmjpouxbK1F96pP-66" style="edgeStyle=orthogonalEdgeStyle;rounded=0;orthogonalLoop=1;jettySize=auto;html=1;dashed=1;" parent="1" source="6GDuDkmjpouxbK1F96pP-29" target="6GDuDkmjpouxbK1F96pP-50" edge="1">
          <mxGeometry relative="1" as="geometry" />
        </mxCell>
        <mxCell id="6GDuDkmjpouxbK1F96pP-67" style="edgeStyle=orthogonalEdgeStyle;rounded=0;orthogonalLoop=1;jettySize=auto;html=1;dashed=1;" parent="1" source="6GDuDkmjpouxbK1F96pP-29" target="6GDuDkmjpouxbK1F96pP-56" edge="1">
          <mxGeometry relative="1" as="geometry" />
        </mxCell>
        <mxCell id="6GDuDkmjpouxbK1F96pP-68" style="edgeStyle=orthogonalEdgeStyle;rounded=0;orthogonalLoop=1;jettySize=auto;html=1;dashed=1;" parent="1" source="6GDuDkmjpouxbK1F96pP-29" target="6GDuDkmjpouxbK1F96pP-60" edge="1">
          <mxGeometry relative="1" as="geometry" />
        </mxCell>
        <mxCell id="6GDuDkmjpouxbK1F96pP-69" style="edgeStyle=orthogonalEdgeStyle;rounded=0;orthogonalLoop=1;jettySize=auto;html=1;dashed=1;" parent="1" source="6GDuDkmjpouxbK1F96pP-29" target="6GDuDkmjpouxbK1F96pP-64" edge="1">
          <mxGeometry relative="1" as="geometry" />
        </mxCell>
        <mxCell id="6GDuDkmjpouxbK1F96pP-29" value="Container Image Registry" style="rounded=1;whiteSpace=wrap;html=1;" parent="1" vertex="1">
          <mxGeometry x="1080" y="330" width="160" height="80" as="geometry" />
        </mxCell>
        <mxCell id="6GDuDkmjpouxbK1F96pP-42" style="edgeStyle=orthogonalEdgeStyle;rounded=0;orthogonalLoop=1;jettySize=auto;html=1;" parent="1" source="6GDuDkmjpouxbK1F96pP-33" target="6GDuDkmjpouxbK1F96pP-37" edge="1">
          <mxGeometry relative="1" as="geometry" />
        </mxCell>
        <mxCell id="6GDuDkmjpouxbK1F96pP-43" style="edgeStyle=orthogonalEdgeStyle;rounded=0;orthogonalLoop=1;jettySize=auto;html=1;entryX=0;entryY=0.5;entryDx=0;entryDy=0;" parent="1" source="6GDuDkmjpouxbK1F96pP-33" target="6GDuDkmjpouxbK1F96pP-38" edge="1">
          <mxGeometry relative="1" as="geometry" />
        </mxCell>
        <mxCell id="6GDuDkmjpouxbK1F96pP-33" value="Director" style="rounded=1;whiteSpace=wrap;html=1;" parent="1" vertex="1">
          <mxGeometry x="860" y="610" width="160" height="80" as="geometry" />
        </mxCell>
        <mxCell id="6GDuDkmjpouxbK1F96pP-44" style="edgeStyle=orthogonalEdgeStyle;rounded=0;orthogonalLoop=1;jettySize=auto;html=1;" parent="1" source="6GDuDkmjpouxbK1F96pP-35" target="6GDuDkmjpouxbK1F96pP-39" edge="1">
          <mxGeometry relative="1" as="geometry" />
        </mxCell>
        <mxCell id="6GDuDkmjpouxbK1F96pP-45" style="edgeStyle=orthogonalEdgeStyle;rounded=0;orthogonalLoop=1;jettySize=auto;html=1;entryX=0;entryY=0.5;entryDx=0;entryDy=0;" parent="1" source="6GDuDkmjpouxbK1F96pP-35" target="6GDuDkmjpouxbK1F96pP-40" edge="1">
          <mxGeometry relative="1" as="geometry" />
        </mxCell>
        <mxCell id="6GDuDkmjpouxbK1F96pP-35" value="Director" style="rounded=1;whiteSpace=wrap;html=1;" parent="1" vertex="1">
          <mxGeometry x="860" y="810" width="160" height="80" as="geometry" />
        </mxCell>
        <mxCell id="6GDuDkmjpouxbK1F96pP-52" style="edgeStyle=orthogonalEdgeStyle;rounded=0;orthogonalLoop=1;jettySize=auto;html=1;" parent="1" source="6GDuDkmjpouxbK1F96pP-37" target="6GDuDkmjpouxbK1F96pP-50" edge="1">
          <mxGeometry relative="1" as="geometry" />
        </mxCell>
        <mxCell id="6GDuDkmjpouxbK1F96pP-37" value="Worker VM" style="rounded=1;whiteSpace=wrap;html=1;" parent="1" vertex="1">
          <mxGeometry x="1080" y="610" width="160" height="80" as="geometry" />
        </mxCell>
        <mxCell id="6GDuDkmjpouxbK1F96pP-38" value="Worker VM" style="rounded=1;whiteSpace=wrap;html=1;" parent="1" vertex="1">
          <mxGeometry x="1080" y="700" width="160" height="80" as="geometry" />
        </mxCell>
        <mxCell id="6GDuDkmjpouxbK1F96pP-39" value="Worker VM" style="rounded=1;whiteSpace=wrap;html=1;" parent="1" vertex="1">
          <mxGeometry x="1080" y="810" width="160" height="80" as="geometry" />
        </mxCell>
        <mxCell id="6GDuDkmjpouxbK1F96pP-40" value="Worker VM" style="rounded=1;whiteSpace=wrap;html=1;" parent="1" vertex="1">
          <mxGeometry x="1080" y="900" width="160" height="80" as="geometry" />
        </mxCell>
        <mxCell id="6GDuDkmjpouxbK1F96pP-41" style="edgeStyle=orthogonalEdgeStyle;rounded=0;orthogonalLoop=1;jettySize=auto;html=1;entryX=-0.004;entryY=0.551;entryDx=0;entryDy=0;entryPerimeter=0;" parent="1" source="6GDuDkmjpouxbK1F96pP-2" target="6GDuDkmjpouxbK1F96pP-35" edge="1">
          <mxGeometry relative="1" as="geometry">
            <Array as="points">
              <mxPoint x="630" y="854" />
            </Array>
          </mxGeometry>
        </mxCell>
        <mxCell id="6GDuDkmjpouxbK1F96pP-46" value="Agent" style="rounded=1;whiteSpace=wrap;html=1;" parent="1" vertex="1">
          <mxGeometry x="1190" y="660" width="50" height="30" as="geometry" />
        </mxCell>
        <mxCell id="6GDuDkmjpouxbK1F96pP-47" value="Agent" style="rounded=1;whiteSpace=wrap;html=1;" parent="1" vertex="1">
          <mxGeometry x="1190" y="750" width="50" height="30" as="geometry" />
        </mxCell>
        <mxCell id="6GDuDkmjpouxbK1F96pP-48" value="Agent" style="rounded=1;whiteSpace=wrap;html=1;" parent="1" vertex="1">
          <mxGeometry x="1190" y="860" width="50" height="30" as="geometry" />
        </mxCell>
        <mxCell id="6GDuDkmjpouxbK1F96pP-49" value="Agent" style="rounded=1;whiteSpace=wrap;html=1;" parent="1" vertex="1">
          <mxGeometry x="1190" y="950" width="50" height="30" as="geometry" />
        </mxCell>
        <mxCell id="6GDuDkmjpouxbK1F96pP-53" style="edgeStyle=orthogonalEdgeStyle;rounded=0;orthogonalLoop=1;jettySize=auto;html=1;" parent="1" source="6GDuDkmjpouxbK1F96pP-50" target="6GDuDkmjpouxbK1F96pP-51" edge="1">
          <mxGeometry relative="1" as="geometry" />
        </mxCell>
        <mxCell id="6GDuDkmjpouxbK1F96pP-50" value="Container Runtime" style="image;sketch=0;aspect=fixed;html=1;points=[];align=center;fontSize=12;image=img/lib/mscae/Docker.svg;" parent="1" vertex="1">
          <mxGeometry x="1290" y="630" width="50" height="41" as="geometry" />
        </mxCell>
        <mxCell id="6GDuDkmjpouxbK1F96pP-51" value="App Instances" style="image;aspect=fixed;html=1;points=[];align=center;fontSize=12;image=img/lib/azure2/compute/Container_Services_Deprecated.svg;" parent="1" vertex="1">
          <mxGeometry x="1410" y="620" width="68" height="60" as="geometry" />
        </mxCell>
        <mxCell id="6GDuDkmjpouxbK1F96pP-54" style="edgeStyle=orthogonalEdgeStyle;rounded=0;orthogonalLoop=1;jettySize=auto;html=1;" parent="1" target="6GDuDkmjpouxbK1F96pP-56" edge="1">
          <mxGeometry relative="1" as="geometry">
            <mxPoint x="1240" y="740" as="sourcePoint" />
          </mxGeometry>
        </mxCell>
        <mxCell id="6GDuDkmjpouxbK1F96pP-55" style="edgeStyle=orthogonalEdgeStyle;rounded=0;orthogonalLoop=1;jettySize=auto;html=1;" parent="1" source="6GDuDkmjpouxbK1F96pP-56" target="6GDuDkmjpouxbK1F96pP-57" edge="1">
          <mxGeometry relative="1" as="geometry" />
        </mxCell>
        <mxCell id="6GDuDkmjpouxbK1F96pP-56" value="Container Runtime" style="image;sketch=0;aspect=fixed;html=1;points=[];align=center;fontSize=12;image=img/lib/mscae/Docker.svg;" parent="1" vertex="1">
          <mxGeometry x="1290" y="720" width="50" height="41" as="geometry" />
        </mxCell>
        <mxCell id="6GDuDkmjpouxbK1F96pP-57" value="App Instances" style="image;aspect=fixed;html=1;points=[];align=center;fontSize=12;image=img/lib/azure2/compute/Container_Services_Deprecated.svg;" parent="1" vertex="1">
          <mxGeometry x="1410" y="710" width="68" height="60" as="geometry" />
        </mxCell>
        <mxCell id="6GDuDkmjpouxbK1F96pP-58" style="edgeStyle=orthogonalEdgeStyle;rounded=0;orthogonalLoop=1;jettySize=auto;html=1;" parent="1" target="6GDuDkmjpouxbK1F96pP-60" edge="1">
          <mxGeometry relative="1" as="geometry">
            <mxPoint x="1240" y="850" as="sourcePoint" />
          </mxGeometry>
        </mxCell>
        <mxCell id="6GDuDkmjpouxbK1F96pP-59" style="edgeStyle=orthogonalEdgeStyle;rounded=0;orthogonalLoop=1;jettySize=auto;html=1;" parent="1" source="6GDuDkmjpouxbK1F96pP-60" target="6GDuDkmjpouxbK1F96pP-61" edge="1">
          <mxGeometry relative="1" as="geometry" />
        </mxCell>
        <mxCell id="6GDuDkmjpouxbK1F96pP-60" value="Container Runtime" style="image;sketch=0;aspect=fixed;html=1;points=[];align=center;fontSize=12;image=img/lib/mscae/Docker.svg;" parent="1" vertex="1">
          <mxGeometry x="1290" y="830" width="50" height="41" as="geometry" />
        </mxCell>
        <mxCell id="6GDuDkmjpouxbK1F96pP-61" value="App Instances" style="image;aspect=fixed;html=1;points=[];align=center;fontSize=12;image=img/lib/azure2/compute/Container_Services_Deprecated.svg;" parent="1" vertex="1">
          <mxGeometry x="1410" y="820" width="68" height="60" as="geometry" />
        </mxCell>
        <mxCell id="6GDuDkmjpouxbK1F96pP-62" style="edgeStyle=orthogonalEdgeStyle;rounded=0;orthogonalLoop=1;jettySize=auto;html=1;" parent="1" target="6GDuDkmjpouxbK1F96pP-64" edge="1">
          <mxGeometry relative="1" as="geometry">
            <mxPoint x="1240" y="940" as="sourcePoint" />
          </mxGeometry>
        </mxCell>
        <mxCell id="6GDuDkmjpouxbK1F96pP-63" style="edgeStyle=orthogonalEdgeStyle;rounded=0;orthogonalLoop=1;jettySize=auto;html=1;" parent="1" source="6GDuDkmjpouxbK1F96pP-64" target="6GDuDkmjpouxbK1F96pP-65" edge="1">
          <mxGeometry relative="1" as="geometry" />
        </mxCell>
        <mxCell id="6GDuDkmjpouxbK1F96pP-64" value="Container Runtime" style="image;sketch=0;aspect=fixed;html=1;points=[];align=center;fontSize=12;image=img/lib/mscae/Docker.svg;" parent="1" vertex="1">
          <mxGeometry x="1290" y="920" width="50" height="41" as="geometry" />
        </mxCell>
        <mxCell id="6GDuDkmjpouxbK1F96pP-65" value="App Instances" style="image;aspect=fixed;html=1;points=[];align=center;fontSize=12;image=img/lib/azure2/compute/Container_Services_Deprecated.svg;" parent="1" vertex="1">
          <mxGeometry x="1410" y="910" width="68" height="60" as="geometry" />
        </mxCell>
        <mxCell id="6GDuDkmjpouxbK1F96pP-79" value="" style="group" parent="1" vertex="1" connectable="0">
          <mxGeometry x="410" y="170" width="340" height="220" as="geometry" />
        </mxCell>
        <mxCell id="6GDuDkmjpouxbK1F96pP-78" value="" style="ellipse;shape=cloud;whiteSpace=wrap;html=1;" parent="6GDuDkmjpouxbK1F96pP-79" vertex="1">
          <mxGeometry width="340" height="220" as="geometry" />
        </mxCell>
        <mxCell id="6GDuDkmjpouxbK1F96pP-17" value="Job List" style="sketch=0;html=1;aspect=fixed;strokeColor=none;shadow=0;fillColor=#3B8DF1;verticalAlign=top;labelPosition=center;verticalLabelPosition=bottom;shape=mxgraph.gcp2.view_list;rotation=0;" parent="6GDuDkmjpouxbK1F96pP-79" vertex="1">
          <mxGeometry x="60.75" y="85.31" width="40" height="49.38" as="geometry" />
        </mxCell>
        <mxCell id="6GDuDkmjpouxbK1F96pP-20" value="App Src" style="verticalLabelPosition=bottom;html=1;verticalAlign=top;align=center;strokeColor=none;fillColor=#00BEF2;shape=mxgraph.azure.cloud_service_package_file;rotation=0;" parent="6GDuDkmjpouxbK1F96pP-79" vertex="1">
          <mxGeometry x="148.75" y="44.31" width="42.5" height="50" as="geometry" />
        </mxCell>
        <mxCell id="6GDuDkmjpouxbK1F96pP-21" value="App Src" style="verticalLabelPosition=bottom;html=1;verticalAlign=top;align=center;strokeColor=none;fillColor=#00BEF2;shape=mxgraph.azure.cloud_service_package_file;rotation=0;" parent="6GDuDkmjpouxbK1F96pP-79" vertex="1">
          <mxGeometry x="148.75" y="114.31" width="42.5" height="50" as="geometry" />
        </mxCell>
        <mxCell id="6GDuDkmjpouxbK1F96pP-22" value="App Src" style="verticalLabelPosition=bottom;html=1;verticalAlign=top;align=center;strokeColor=none;fillColor=#00BEF2;shape=mxgraph.azure.cloud_service_package_file;rotation=0;" parent="6GDuDkmjpouxbK1F96pP-79" vertex="1">
          <mxGeometry x="218.75" y="44.31" width="42.5" height="50" as="geometry" />
        </mxCell>
        <mxCell id="6GDuDkmjpouxbK1F96pP-23" value="App Src" style="verticalLabelPosition=bottom;html=1;verticalAlign=top;align=center;strokeColor=none;fillColor=#00BEF2;shape=mxgraph.azure.cloud_service_package_file;rotation=0;" parent="6GDuDkmjpouxbK1F96pP-79" vertex="1">
          <mxGeometry x="218.75" y="114.31" width="42.5" height="50" as="geometry" />
        </mxCell>
        <mxCell id="6GDuDkmjpouxbK1F96pP-80" style="edgeStyle=orthogonalEdgeStyle;rounded=0;orthogonalLoop=1;jettySize=auto;html=1;entryX=0.55;entryY=0.95;entryDx=0;entryDy=0;entryPerimeter=0;dashed=1;endArrow=none;endFill=0;" parent="1" source="6GDuDkmjpouxbK1F96pP-2" target="6GDuDkmjpouxbK1F96pP-78" edge="1">
          <mxGeometry relative="1" as="geometry" />
        </mxCell>
      </root>
    </mxGraphModel>
  </diagram>
  <diagram id="zry2UKqd3nVuYHudWHST" name="Bootstrap Process">
    <mxGraphModel dx="629" dy="566" grid="1" gridSize="10" guides="1" tooltips="1" connect="1" arrows="1" fold="1" page="1" pageScale="1" pageWidth="827" pageHeight="1169" math="0" shadow="0">
      <root>
        <mxCell id="0" />
        <mxCell id="1" parent="0" />
        <mxCell id="osSL_Dc_ii8sS_GC0yC_-11" style="edgeStyle=orthogonalEdgeStyle;rounded=0;orthogonalLoop=1;jettySize=auto;html=1;entryX=0.5;entryY=0;entryDx=0;entryDy=0;" edge="1" parent="1" source="osSL_Dc_ii8sS_GC0yC_-1" target="osSL_Dc_ii8sS_GC0yC_-21">
          <mxGeometry relative="1" as="geometry" />
        </mxCell>
        <mxCell id="osSL_Dc_ii8sS_GC0yC_-1" value="&lt;blockquote style=&quot;margin: 0 0 0 40px; border: none; padding: 0px;&quot;&gt;&amp;nbsp; &amp;nbsp; &amp;nbsp; &amp;nbsp;omni init&lt;div&gt;&amp;nbsp; &amp;nbsp; &amp;nbsp;&lt;/div&gt;&lt;div&gt;The omni init command creates an initial Omni Orchestrator service that acts briefly as the &#39;root&#39; node in the cluster.&lt;/div&gt;&lt;/blockquote&gt;" style="rounded=1;whiteSpace=wrap;html=1;verticalAlign=top;align=left;" vertex="1" parent="1">
          <mxGeometry x="104" y="272" width="190" height="110" as="geometry" />
        </mxCell>
        <mxCell id="osSL_Dc_ii8sS_GC0yC_-2" value="" style="editableCssRules=.*;html=1;shape=image;verticalLabelPosition=bottom;labelBackgroundColor=#ffffff;verticalAlign=top;aspect=fixed;imageAspect=0;image=data:image/svg+xml,PHN2ZyB4bWxucz0iaHR0cDovL3d3dy53My5vcmcvMjAwMC9zdmciIHhtbG5zOnY9Imh0dHBzOi8vdmVjdGEuaW8vbmFubyIgd2lkdGg9IjM3NS44NTAyODQ2NDQwODg3MyIgaGVpZ2h0PSIzNTMuODA1Nzc3NDY3NzY5NyIgdmlld0JveD0iMC4yNTU5OTk1NjUxMjQ1MTE3IDAuNDI2MDAwMDI4ODQ4NjQ4MDcgOTkuNDQzNjU2OTIxMzg2NzIgOTMuNjExMDAwMDYxMDM1MTYiPiYjeGE7PHN0eWxlIHR5cGU9InRleHQvY3NzIj4mI3hhOwkuc3Qwe2ZpbGw6I2FlY2JmYTt9JiN4YTsJLnN0MXtmaWxsOiNmZmY7fSYjeGE7CS5zdDJ7ZmlsbDojNDI4NWY0O30mI3hhOwkuc3Qze2ZpbGw6IzY2OWRmNjt9JiN4YTs8L3N0eWxlPiYjeGE7CTxwYXRoIGNsYXNzPSJzdDAiIGQ9Ik04LjU0NCA3MS45MjhjLTQuODE1IDAtOC4yODgtMy44ODktOC4yODgtOC4zMjdWNy45ODNDLjI1NyA0LjY1IDQuMDcyLjQyNiA3LjQ5NS40MjZoODMuOTUyYzQuNzA1IDAgOC4yNTIgMy4zNzkgOC4yNTIgOC4xNzR2NTEuNDk1Yy4wNDcgNy41OTUtMi40NyAxMS44MzQtOS4wMTIgMTEuODM0eiIvPiYjeGE7CTxwYXRoIGNsYXNzPSJzdDEiIGQ9Ik0yOC4wNDYgNTcuMTV2LTkuOTIybDMxLjg4Mi0xMy44OTEtMzEuODgyLTEzLjY5MlY5LjI2MWw0NS44MDYgMTguOTg0djkuNzl6bTI1LjIzNSAzLjY3MXYtMTAuNTVoMjAuMDc1djEwLjU1eiIvPiYjeGE7CTxwYXRoIGNsYXNzPSJzdDIiIGQ9Ik00MC4wMyA4My41MjRWNzEuOTI4aDIwLjI5NXYxMS41OTZ6Ii8+JiN4YTsJPHBhdGggY2xhc3M9InN0MyIgZD0iTTY5Ljg3MyA4My41MjR2MTAuNTEzSDMwLjFWODMuNTI0eiIvPiYjeGE7PC9zdmc+;" vertex="1" parent="1">
          <mxGeometry x="84" y="262" width="40" height="38" as="geometry" />
        </mxCell>
        <mxCell id="osSL_Dc_ii8sS_GC0yC_-17" value="" style="group" vertex="1" connectable="0" parent="1">
          <mxGeometry x="310" y="440" width="80" height="90" as="geometry" />
        </mxCell>
        <mxCell id="osSL_Dc_ii8sS_GC0yC_-9" value="Root Node" style="text;html=1;align=center;verticalAlign=middle;resizable=0;points=[];autosize=1;strokeColor=none;fillColor=none;container=0;" vertex="1" parent="osSL_Dc_ii8sS_GC0yC_-17">
          <mxGeometry y="60" width="80" height="30" as="geometry" />
        </mxCell>
        <mxCell id="osSL_Dc_ii8sS_GC0yC_-6" value="" style="image;aspect=fixed;perimeter=ellipsePerimeter;html=1;align=center;shadow=0;dashed=0;spacingTop=3;image=img/lib/active_directory/generic_server.svg;container=0;" vertex="1" parent="osSL_Dc_ii8sS_GC0yC_-17">
          <mxGeometry x="15" width="28.000000000000004" height="50" as="geometry" />
        </mxCell>
        <mxCell id="osSL_Dc_ii8sS_GC0yC_-16" value="" style="outlineConnect=0;dashed=0;verticalLabelPosition=bottom;verticalAlign=top;align=center;html=1;shape=mxgraph.aws3.hosted_zone;fillColor=#80FF00;gradientColor=none;container=0;" vertex="1" parent="osSL_Dc_ii8sS_GC0yC_-17">
          <mxGeometry x="54" y="10" width="24" height="30" as="geometry" />
        </mxCell>
        <mxCell id="osSL_Dc_ii8sS_GC0yC_-18" value="Once the initial node is set up it is handed the cluster config and begine automatically configuring those nodes as Omni Orchestrators.&lt;div&gt;&lt;br&gt;&lt;/div&gt;&lt;div&gt;This is done by constructing a VM in which CLI commands to control the outer platform are issued.&lt;/div&gt;" style="rounded=1;whiteSpace=wrap;html=1;align=left;verticalAlign=top;arcSize=3;" vertex="1" parent="1">
          <mxGeometry y="430" width="160" height="210" as="geometry" />
        </mxCell>
        <mxCell id="osSL_Dc_ii8sS_GC0yC_-19" value="" style="group" vertex="1" connectable="0" parent="1">
          <mxGeometry x="170" y="440" width="80" height="90" as="geometry" />
        </mxCell>
        <mxCell id="osSL_Dc_ii8sS_GC0yC_-20" value="Root Node" style="text;html=1;align=center;verticalAlign=middle;resizable=0;points=[];autosize=1;strokeColor=none;fillColor=none;container=0;" vertex="1" parent="osSL_Dc_ii8sS_GC0yC_-19">
          <mxGeometry y="60" width="80" height="30" as="geometry" />
        </mxCell>
        <mxCell id="osSL_Dc_ii8sS_GC0yC_-21" value="" style="image;aspect=fixed;perimeter=ellipsePerimeter;html=1;align=center;shadow=0;dashed=0;spacingTop=3;image=img/lib/active_directory/generic_server.svg;container=0;" vertex="1" parent="osSL_Dc_ii8sS_GC0yC_-19">
          <mxGeometry x="15" width="28.000000000000004" height="50" as="geometry" />
        </mxCell>
        <mxCell id="osSL_Dc_ii8sS_GC0yC_-22" value="&lt;font style=&quot;color: rgb(0, 0, 0);&quot;&gt;1&lt;/font&gt;" style="outlineConnect=0;dashed=0;verticalLabelPosition=middle;verticalAlign=middle;align=center;html=1;shape=mxgraph.aws3.hosted_zone;fillColor=#80FF00;gradientColor=none;container=0;labelPosition=center;" vertex="1" parent="osSL_Dc_ii8sS_GC0yC_-19">
          <mxGeometry x="54" y="10" width="24" height="30" as="geometry" />
        </mxCell>
        <mxCell id="osSL_Dc_ii8sS_GC0yC_-23" value="" style="group" vertex="1" connectable="0" parent="1">
          <mxGeometry x="310" y="540" width="80" height="90" as="geometry" />
        </mxCell>
        <mxCell id="osSL_Dc_ii8sS_GC0yC_-24" value="Root Node" style="text;html=1;align=center;verticalAlign=middle;resizable=0;points=[];autosize=1;strokeColor=none;fillColor=none;container=0;" vertex="1" parent="osSL_Dc_ii8sS_GC0yC_-23">
          <mxGeometry y="60" width="80" height="30" as="geometry" />
        </mxCell>
        <mxCell id="osSL_Dc_ii8sS_GC0yC_-25" value="" style="image;aspect=fixed;perimeter=ellipsePerimeter;html=1;align=center;shadow=0;dashed=0;spacingTop=3;image=img/lib/active_directory/generic_server.svg;container=0;" vertex="1" parent="osSL_Dc_ii8sS_GC0yC_-23">
          <mxGeometry x="15" width="28.000000000000004" height="50" as="geometry" />
        </mxCell>
        <mxCell id="osSL_Dc_ii8sS_GC0yC_-26" value="" style="outlineConnect=0;dashed=0;verticalLabelPosition=bottom;verticalAlign=top;align=center;html=1;shape=mxgraph.aws3.hosted_zone;fillColor=#80FF00;gradientColor=none;container=0;" vertex="1" parent="osSL_Dc_ii8sS_GC0yC_-23">
          <mxGeometry x="54" y="10" width="24" height="30" as="geometry" />
        </mxCell>
        <mxCell id="osSL_Dc_ii8sS_GC0yC_-27" value="" style="group" vertex="1" connectable="0" parent="1">
          <mxGeometry x="310" y="640" width="80" height="90" as="geometry" />
        </mxCell>
        <mxCell id="osSL_Dc_ii8sS_GC0yC_-28" value="Root Node" style="text;html=1;align=center;verticalAlign=middle;resizable=0;points=[];autosize=1;strokeColor=none;fillColor=none;container=0;" vertex="1" parent="osSL_Dc_ii8sS_GC0yC_-27">
          <mxGeometry y="60" width="80" height="30" as="geometry" />
        </mxCell>
        <mxCell id="osSL_Dc_ii8sS_GC0yC_-29" value="" style="image;aspect=fixed;perimeter=ellipsePerimeter;html=1;align=center;shadow=0;dashed=0;spacingTop=3;image=img/lib/active_directory/generic_server.svg;container=0;" vertex="1" parent="osSL_Dc_ii8sS_GC0yC_-27">
          <mxGeometry x="15" width="28.000000000000004" height="50" as="geometry" />
        </mxCell>
        <mxCell id="osSL_Dc_ii8sS_GC0yC_-30" value="" style="outlineConnect=0;dashed=0;verticalLabelPosition=bottom;verticalAlign=top;align=center;html=1;shape=mxgraph.aws3.hosted_zone;fillColor=#80FF00;gradientColor=none;container=0;" vertex="1" parent="osSL_Dc_ii8sS_GC0yC_-27">
          <mxGeometry x="54" y="10" width="24" height="30" as="geometry" />
        </mxCell>
        <mxCell id="osSL_Dc_ii8sS_GC0yC_-31" value="" style="group" vertex="1" connectable="0" parent="1">
          <mxGeometry x="310" y="740" width="80" height="90" as="geometry" />
        </mxCell>
        <mxCell id="osSL_Dc_ii8sS_GC0yC_-32" value="Root Node" style="text;html=1;align=center;verticalAlign=middle;resizable=0;points=[];autosize=1;strokeColor=none;fillColor=none;container=0;" vertex="1" parent="osSL_Dc_ii8sS_GC0yC_-31">
          <mxGeometry y="60" width="80" height="30" as="geometry" />
        </mxCell>
        <mxCell id="osSL_Dc_ii8sS_GC0yC_-33" value="" style="image;aspect=fixed;perimeter=ellipsePerimeter;html=1;align=center;shadow=0;dashed=0;spacingTop=3;image=img/lib/active_directory/generic_server.svg;container=0;" vertex="1" parent="osSL_Dc_ii8sS_GC0yC_-31">
          <mxGeometry x="15" width="28.000000000000004" height="50" as="geometry" />
        </mxCell>
        <mxCell id="osSL_Dc_ii8sS_GC0yC_-34" value="" style="outlineConnect=0;dashed=0;verticalLabelPosition=bottom;verticalAlign=top;align=center;html=1;shape=mxgraph.aws3.hosted_zone;fillColor=#80FF00;gradientColor=none;container=0;" vertex="1" parent="osSL_Dc_ii8sS_GC0yC_-31">
          <mxGeometry x="54" y="10" width="24" height="30" as="geometry" />
        </mxCell>
        <mxCell id="osSL_Dc_ii8sS_GC0yC_-35" style="edgeStyle=orthogonalEdgeStyle;rounded=0;orthogonalLoop=1;jettySize=auto;html=1;entryX=0;entryY=0.5;entryDx=0;entryDy=0;" edge="1" parent="1" source="osSL_Dc_ii8sS_GC0yC_-22" target="osSL_Dc_ii8sS_GC0yC_-6">
          <mxGeometry relative="1" as="geometry" />
        </mxCell>
        <mxCell id="osSL_Dc_ii8sS_GC0yC_-36" style="edgeStyle=orthogonalEdgeStyle;rounded=0;orthogonalLoop=1;jettySize=auto;html=1;entryX=0;entryY=0.5;entryDx=0;entryDy=0;" edge="1" parent="1" source="osSL_Dc_ii8sS_GC0yC_-22" target="osSL_Dc_ii8sS_GC0yC_-25">
          <mxGeometry relative="1" as="geometry" />
        </mxCell>
        <mxCell id="osSL_Dc_ii8sS_GC0yC_-37" style="edgeStyle=orthogonalEdgeStyle;rounded=0;orthogonalLoop=1;jettySize=auto;html=1;entryX=0;entryY=0.5;entryDx=0;entryDy=0;" edge="1" parent="1" source="osSL_Dc_ii8sS_GC0yC_-22" target="osSL_Dc_ii8sS_GC0yC_-29">
          <mxGeometry relative="1" as="geometry" />
        </mxCell>
        <mxCell id="osSL_Dc_ii8sS_GC0yC_-38" style="edgeStyle=orthogonalEdgeStyle;rounded=0;orthogonalLoop=1;jettySize=auto;html=1;entryX=0;entryY=0.5;entryDx=0;entryDy=0;" edge="1" parent="1" source="osSL_Dc_ii8sS_GC0yC_-22" target="osSL_Dc_ii8sS_GC0yC_-33">
          <mxGeometry relative="1" as="geometry" />
        </mxCell>
        <mxCell id="osSL_Dc_ii8sS_GC0yC_-39" value="After the initial Orchestrator cluster is set up the root node is killed as it is no longer required" style="rounded=1;whiteSpace=wrap;html=1;align=left;verticalAlign=top;" vertex="1" parent="1">
          <mxGeometry x="440" y="328" width="160" height="70" as="geometry" />
        </mxCell>
        <mxCell id="osSL_Dc_ii8sS_GC0yC_-40" style="edgeStyle=orthogonalEdgeStyle;rounded=0;orthogonalLoop=1;jettySize=auto;html=1;entryX=0;entryY=0.5;entryDx=0;entryDy=0;" edge="1" parent="1" source="osSL_Dc_ii8sS_GC0yC_-41" target="osSL_Dc_ii8sS_GC0yC_-50">
          <mxGeometry relative="1" as="geometry">
            <Array as="points">
              <mxPoint x="556" y="463" />
              <mxPoint x="556" y="463" />
            </Array>
          </mxGeometry>
        </mxCell>
        <mxCell id="osSL_Dc_ii8sS_GC0yC_-41" value="&amp;nbsp; &amp;nbsp; &amp;nbsp; &amp;nbsp;omni init" style="rounded=1;whiteSpace=wrap;html=1;verticalAlign=top;align=left;" vertex="1" parent="1">
          <mxGeometry x="450" y="446" width="90" height="30" as="geometry" />
        </mxCell>
        <mxCell id="osSL_Dc_ii8sS_GC0yC_-42" value="" style="editableCssRules=.*;html=1;shape=image;verticalLabelPosition=bottom;labelBackgroundColor=#ffffff;verticalAlign=top;aspect=fixed;imageAspect=0;image=data:image/svg+xml,PHN2ZyB4bWxucz0iaHR0cDovL3d3dy53My5vcmcvMjAwMC9zdmciIHhtbG5zOnY9Imh0dHBzOi8vdmVjdGEuaW8vbmFubyIgd2lkdGg9IjM3NS44NTAyODQ2NDQwODg3MyIgaGVpZ2h0PSIzNTMuODA1Nzc3NDY3NzY5NyIgdmlld0JveD0iMC4yNTU5OTk1NjUxMjQ1MTE3IDAuNDI2MDAwMDI4ODQ4NjQ4MDcgOTkuNDQzNjU2OTIxMzg2NzIgOTMuNjExMDAwMDYxMDM1MTYiPiYjeGE7PHN0eWxlIHR5cGU9InRleHQvY3NzIj4mI3hhOwkuc3Qwe2ZpbGw6I2FlY2JmYTt9JiN4YTsJLnN0MXtmaWxsOiNmZmY7fSYjeGE7CS5zdDJ7ZmlsbDojNDI4NWY0O30mI3hhOwkuc3Qze2ZpbGw6IzY2OWRmNjt9JiN4YTs8L3N0eWxlPiYjeGE7CTxwYXRoIGNsYXNzPSJzdDAiIGQ9Ik04LjU0NCA3MS45MjhjLTQuODE1IDAtOC4yODgtMy44ODktOC4yODgtOC4zMjdWNy45ODNDLjI1NyA0LjY1IDQuMDcyLjQyNiA3LjQ5NS40MjZoODMuOTUyYzQuNzA1IDAgOC4yNTIgMy4zNzkgOC4yNTIgOC4xNzR2NTEuNDk1Yy4wNDcgNy41OTUtMi40NyAxMS44MzQtOS4wMTIgMTEuODM0eiIvPiYjeGE7CTxwYXRoIGNsYXNzPSJzdDEiIGQ9Ik0yOC4wNDYgNTcuMTV2LTkuOTIybDMxLjg4Mi0xMy44OTEtMzEuODgyLTEzLjY5MlY5LjI2MWw0NS44MDYgMTguOTg0djkuNzl6bTI1LjIzNSAzLjY3MXYtMTAuNTVoMjAuMDc1djEwLjU1eiIvPiYjeGE7CTxwYXRoIGNsYXNzPSJzdDIiIGQ9Ik00MC4wMyA4My41MjRWNzEuOTI4aDIwLjI5NXYxMS41OTZ6Ii8+JiN4YTsJPHBhdGggY2xhc3M9InN0MyIgZD0iTTY5Ljg3MyA4My41MjR2MTAuNTEzSDMwLjFWODMuNTI0eiIvPiYjeGE7PC9zdmc+;" vertex="1" parent="1">
          <mxGeometry x="440" y="428" width="40" height="38" as="geometry" />
        </mxCell>
        <mxCell id="osSL_Dc_ii8sS_GC0yC_-43" value="" style="group" vertex="1" connectable="0" parent="1">
          <mxGeometry x="686" y="438" width="80" height="90" as="geometry" />
        </mxCell>
        <mxCell id="osSL_Dc_ii8sS_GC0yC_-44" value="Root Node" style="text;html=1;align=center;verticalAlign=middle;resizable=0;points=[];autosize=1;strokeColor=none;fillColor=none;container=0;" vertex="1" parent="osSL_Dc_ii8sS_GC0yC_-43">
          <mxGeometry y="60" width="80" height="30" as="geometry" />
        </mxCell>
        <mxCell id="osSL_Dc_ii8sS_GC0yC_-45" value="" style="image;aspect=fixed;perimeter=ellipsePerimeter;html=1;align=center;shadow=0;dashed=0;spacingTop=3;image=img/lib/active_directory/generic_server.svg;container=0;" vertex="1" parent="osSL_Dc_ii8sS_GC0yC_-43">
          <mxGeometry x="15" width="28.000000000000004" height="50" as="geometry" />
        </mxCell>
        <mxCell id="osSL_Dc_ii8sS_GC0yC_-46" value="" style="outlineConnect=0;dashed=0;verticalLabelPosition=bottom;verticalAlign=top;align=center;html=1;shape=mxgraph.aws3.hosted_zone;fillColor=#80FF00;gradientColor=none;container=0;" vertex="1" parent="osSL_Dc_ii8sS_GC0yC_-43">
          <mxGeometry x="54" y="10" width="24" height="30" as="geometry" />
        </mxCell>
        <mxCell id="osSL_Dc_ii8sS_GC0yC_-48" value="" style="group" vertex="1" connectable="0" parent="1">
          <mxGeometry x="560" y="438" width="90" height="90" as="geometry" />
        </mxCell>
        <mxCell id="osSL_Dc_ii8sS_GC0yC_-50" value="" style="image;aspect=fixed;perimeter=ellipsePerimeter;html=1;align=center;shadow=0;dashed=0;spacingTop=3;image=img/lib/active_directory/generic_server.svg;container=0;" vertex="1" parent="osSL_Dc_ii8sS_GC0yC_-48">
          <mxGeometry x="15" width="28.000000000000004" height="50" as="geometry" />
        </mxCell>
        <mxCell id="osSL_Dc_ii8sS_GC0yC_-51" value="&lt;font style=&quot;color: rgb(0, 0, 0);&quot;&gt;1&lt;/font&gt;" style="outlineConnect=0;dashed=0;verticalLabelPosition=middle;verticalAlign=middle;align=center;html=1;shape=mxgraph.aws3.hosted_zone;fillColor=#80FF00;gradientColor=none;container=0;labelPosition=center;" vertex="1" parent="osSL_Dc_ii8sS_GC0yC_-48">
          <mxGeometry x="54" y="10" width="24" height="30" as="geometry" />
        </mxCell>
        <mxCell id="osSL_Dc_ii8sS_GC0yC_-102" value="" style="shape=mxgraph.sysml.x;strokeWidth=5;strokeColor=#FF0000;" vertex="1" parent="osSL_Dc_ii8sS_GC0yC_-48">
          <mxGeometry x="16.5" width="57" height="60" as="geometry" />
        </mxCell>
        <mxCell id="osSL_Dc_ii8sS_GC0yC_-52" value="" style="group" vertex="1" connectable="0" parent="1">
          <mxGeometry x="686" y="538" width="80" height="90" as="geometry" />
        </mxCell>
        <mxCell id="osSL_Dc_ii8sS_GC0yC_-53" value="Root Node" style="text;html=1;align=center;verticalAlign=middle;resizable=0;points=[];autosize=1;strokeColor=none;fillColor=none;container=0;" vertex="1" parent="osSL_Dc_ii8sS_GC0yC_-52">
          <mxGeometry y="60" width="80" height="30" as="geometry" />
        </mxCell>
        <mxCell id="osSL_Dc_ii8sS_GC0yC_-54" value="" style="image;aspect=fixed;perimeter=ellipsePerimeter;html=1;align=center;shadow=0;dashed=0;spacingTop=3;image=img/lib/active_directory/generic_server.svg;container=0;" vertex="1" parent="osSL_Dc_ii8sS_GC0yC_-52">
          <mxGeometry x="15" width="28.000000000000004" height="50" as="geometry" />
        </mxCell>
        <mxCell id="osSL_Dc_ii8sS_GC0yC_-55" value="" style="outlineConnect=0;dashed=0;verticalLabelPosition=bottom;verticalAlign=top;align=center;html=1;shape=mxgraph.aws3.hosted_zone;fillColor=#80FF00;gradientColor=none;container=0;" vertex="1" parent="osSL_Dc_ii8sS_GC0yC_-52">
          <mxGeometry x="54" y="10" width="24" height="30" as="geometry" />
        </mxCell>
        <mxCell id="osSL_Dc_ii8sS_GC0yC_-56" value="" style="group" vertex="1" connectable="0" parent="1">
          <mxGeometry x="686" y="638" width="80" height="90" as="geometry" />
        </mxCell>
        <mxCell id="osSL_Dc_ii8sS_GC0yC_-57" value="Root Node" style="text;html=1;align=center;verticalAlign=middle;resizable=0;points=[];autosize=1;strokeColor=none;fillColor=none;container=0;" vertex="1" parent="osSL_Dc_ii8sS_GC0yC_-56">
          <mxGeometry y="60" width="80" height="30" as="geometry" />
        </mxCell>
        <mxCell id="osSL_Dc_ii8sS_GC0yC_-58" value="" style="image;aspect=fixed;perimeter=ellipsePerimeter;html=1;align=center;shadow=0;dashed=0;spacingTop=3;image=img/lib/active_directory/generic_server.svg;container=0;" vertex="1" parent="osSL_Dc_ii8sS_GC0yC_-56">
          <mxGeometry x="15" width="28.000000000000004" height="50" as="geometry" />
        </mxCell>
        <mxCell id="osSL_Dc_ii8sS_GC0yC_-59" value="" style="outlineConnect=0;dashed=0;verticalLabelPosition=bottom;verticalAlign=top;align=center;html=1;shape=mxgraph.aws3.hosted_zone;fillColor=#80FF00;gradientColor=none;container=0;" vertex="1" parent="osSL_Dc_ii8sS_GC0yC_-56">
          <mxGeometry x="54" y="10" width="24" height="30" as="geometry" />
        </mxCell>
        <mxCell id="osSL_Dc_ii8sS_GC0yC_-60" value="" style="group" vertex="1" connectable="0" parent="1">
          <mxGeometry x="686" y="738" width="80" height="90" as="geometry" />
        </mxCell>
        <mxCell id="osSL_Dc_ii8sS_GC0yC_-61" value="Root Node" style="text;html=1;align=center;verticalAlign=middle;resizable=0;points=[];autosize=1;strokeColor=none;fillColor=none;container=0;" vertex="1" parent="osSL_Dc_ii8sS_GC0yC_-60">
          <mxGeometry y="60" width="80" height="30" as="geometry" />
        </mxCell>
        <mxCell id="osSL_Dc_ii8sS_GC0yC_-62" value="" style="image;aspect=fixed;perimeter=ellipsePerimeter;html=1;align=center;shadow=0;dashed=0;spacingTop=3;image=img/lib/active_directory/generic_server.svg;container=0;" vertex="1" parent="osSL_Dc_ii8sS_GC0yC_-60">
          <mxGeometry x="15" width="28.000000000000004" height="50" as="geometry" />
        </mxCell>
        <mxCell id="osSL_Dc_ii8sS_GC0yC_-63" value="" style="outlineConnect=0;dashed=0;verticalLabelPosition=bottom;verticalAlign=top;align=center;html=1;shape=mxgraph.aws3.hosted_zone;fillColor=#80FF00;gradientColor=none;container=0;" vertex="1" parent="osSL_Dc_ii8sS_GC0yC_-60">
          <mxGeometry x="54" y="10" width="24" height="30" as="geometry" />
        </mxCell>
        <mxCell id="osSL_Dc_ii8sS_GC0yC_-64" style="edgeStyle=orthogonalEdgeStyle;rounded=0;orthogonalLoop=1;jettySize=auto;html=1;entryX=0;entryY=0.5;entryDx=0;entryDy=0;" edge="1" parent="1" source="osSL_Dc_ii8sS_GC0yC_-51" target="osSL_Dc_ii8sS_GC0yC_-45">
          <mxGeometry relative="1" as="geometry" />
        </mxCell>
        <mxCell id="osSL_Dc_ii8sS_GC0yC_-65" style="edgeStyle=orthogonalEdgeStyle;rounded=0;orthogonalLoop=1;jettySize=auto;html=1;entryX=0;entryY=0.5;entryDx=0;entryDy=0;" edge="1" parent="1" source="osSL_Dc_ii8sS_GC0yC_-51" target="osSL_Dc_ii8sS_GC0yC_-54">
          <mxGeometry relative="1" as="geometry" />
        </mxCell>
        <mxCell id="osSL_Dc_ii8sS_GC0yC_-66" style="edgeStyle=orthogonalEdgeStyle;rounded=0;orthogonalLoop=1;jettySize=auto;html=1;entryX=0;entryY=0.5;entryDx=0;entryDy=0;" edge="1" parent="1" source="osSL_Dc_ii8sS_GC0yC_-51" target="osSL_Dc_ii8sS_GC0yC_-58">
          <mxGeometry relative="1" as="geometry" />
        </mxCell>
        <mxCell id="osSL_Dc_ii8sS_GC0yC_-67" style="edgeStyle=orthogonalEdgeStyle;rounded=0;orthogonalLoop=1;jettySize=auto;html=1;entryX=0;entryY=0.5;entryDx=0;entryDy=0;" edge="1" parent="1" source="osSL_Dc_ii8sS_GC0yC_-51" target="osSL_Dc_ii8sS_GC0yC_-62">
          <mxGeometry relative="1" as="geometry" />
        </mxCell>
        <mxCell id="osSL_Dc_ii8sS_GC0yC_-72" value="The orchestrators now run the cluster in" style="rounded=1;whiteSpace=wrap;html=1;align=left;verticalAlign=top;" vertex="1" parent="1">
          <mxGeometry x="838" y="328" width="160" height="70" as="geometry" />
        </mxCell>
        <mxCell id="osSL_Dc_ii8sS_GC0yC_-73" style="edgeStyle=orthogonalEdgeStyle;rounded=0;orthogonalLoop=1;jettySize=auto;html=1;entryX=0;entryY=0.5;entryDx=0;entryDy=0;exitX=1;exitY=0.5;exitDx=0;exitDy=0;" edge="1" parent="1" source="osSL_Dc_ii8sS_GC0yC_-100" target="osSL_Dc_ii8sS_GC0yC_-78">
          <mxGeometry relative="1" as="geometry">
            <mxPoint x="873" y="358" as="sourcePoint" />
            <mxPoint x="887" y="438" as="targetPoint" />
            <Array as="points">
              <mxPoint x="958" y="463" />
              <mxPoint x="958" y="463" />
            </Array>
          </mxGeometry>
        </mxCell>
        <mxCell id="osSL_Dc_ii8sS_GC0yC_-76" value="" style="group" vertex="1" connectable="0" parent="1">
          <mxGeometry x="998" y="438" width="80" height="90" as="geometry" />
        </mxCell>
        <mxCell id="osSL_Dc_ii8sS_GC0yC_-77" value="Root Node" style="text;html=1;align=center;verticalAlign=middle;resizable=0;points=[];autosize=1;strokeColor=none;fillColor=none;container=0;" vertex="1" parent="osSL_Dc_ii8sS_GC0yC_-76">
          <mxGeometry y="60" width="80" height="30" as="geometry" />
        </mxCell>
        <mxCell id="osSL_Dc_ii8sS_GC0yC_-78" value="" style="image;aspect=fixed;perimeter=ellipsePerimeter;html=1;align=center;shadow=0;dashed=0;spacingTop=3;image=img/lib/active_directory/generic_server.svg;container=0;" vertex="1" parent="osSL_Dc_ii8sS_GC0yC_-76">
          <mxGeometry x="15" width="28.000000000000004" height="50" as="geometry" />
        </mxCell>
        <mxCell id="osSL_Dc_ii8sS_GC0yC_-79" value="" style="outlineConnect=0;dashed=0;verticalLabelPosition=bottom;verticalAlign=top;align=center;html=1;shape=mxgraph.aws3.hosted_zone;fillColor=#80FF00;gradientColor=none;container=0;" vertex="1" parent="osSL_Dc_ii8sS_GC0yC_-76">
          <mxGeometry x="54" y="10" width="24" height="30" as="geometry" />
        </mxCell>
        <mxCell id="osSL_Dc_ii8sS_GC0yC_-84" value="" style="group" vertex="1" connectable="0" parent="1">
          <mxGeometry x="998" y="538" width="80" height="90" as="geometry" />
        </mxCell>
        <mxCell id="osSL_Dc_ii8sS_GC0yC_-85" value="Root Node" style="text;html=1;align=center;verticalAlign=middle;resizable=0;points=[];autosize=1;strokeColor=none;fillColor=none;container=0;" vertex="1" parent="osSL_Dc_ii8sS_GC0yC_-84">
          <mxGeometry y="60" width="80" height="30" as="geometry" />
        </mxCell>
        <mxCell id="osSL_Dc_ii8sS_GC0yC_-86" value="" style="image;aspect=fixed;perimeter=ellipsePerimeter;html=1;align=center;shadow=0;dashed=0;spacingTop=3;image=img/lib/active_directory/generic_server.svg;container=0;" vertex="1" parent="osSL_Dc_ii8sS_GC0yC_-84">
          <mxGeometry x="15" width="28.000000000000004" height="50" as="geometry" />
        </mxCell>
        <mxCell id="osSL_Dc_ii8sS_GC0yC_-87" value="" style="outlineConnect=0;dashed=0;verticalLabelPosition=bottom;verticalAlign=top;align=center;html=1;shape=mxgraph.aws3.hosted_zone;fillColor=#80FF00;gradientColor=none;container=0;" vertex="1" parent="osSL_Dc_ii8sS_GC0yC_-84">
          <mxGeometry x="54" y="10" width="24" height="30" as="geometry" />
        </mxCell>
        <mxCell id="osSL_Dc_ii8sS_GC0yC_-88" value="" style="group" vertex="1" connectable="0" parent="1">
          <mxGeometry x="998" y="638" width="80" height="90" as="geometry" />
        </mxCell>
        <mxCell id="osSL_Dc_ii8sS_GC0yC_-89" value="Root Node" style="text;html=1;align=center;verticalAlign=middle;resizable=0;points=[];autosize=1;strokeColor=none;fillColor=none;container=0;" vertex="1" parent="osSL_Dc_ii8sS_GC0yC_-88">
          <mxGeometry y="60" width="80" height="30" as="geometry" />
        </mxCell>
        <mxCell id="osSL_Dc_ii8sS_GC0yC_-90" value="" style="image;aspect=fixed;perimeter=ellipsePerimeter;html=1;align=center;shadow=0;dashed=0;spacingTop=3;image=img/lib/active_directory/generic_server.svg;container=0;" vertex="1" parent="osSL_Dc_ii8sS_GC0yC_-88">
          <mxGeometry x="15" width="28.000000000000004" height="50" as="geometry" />
        </mxCell>
        <mxCell id="osSL_Dc_ii8sS_GC0yC_-91" value="" style="outlineConnect=0;dashed=0;verticalLabelPosition=bottom;verticalAlign=top;align=center;html=1;shape=mxgraph.aws3.hosted_zone;fillColor=#80FF00;gradientColor=none;container=0;" vertex="1" parent="osSL_Dc_ii8sS_GC0yC_-88">
          <mxGeometry x="54" y="10" width="24" height="30" as="geometry" />
        </mxCell>
        <mxCell id="osSL_Dc_ii8sS_GC0yC_-92" value="" style="group" vertex="1" connectable="0" parent="1">
          <mxGeometry x="998" y="738" width="80" height="90" as="geometry" />
        </mxCell>
        <mxCell id="osSL_Dc_ii8sS_GC0yC_-93" value="Root Node" style="text;html=1;align=center;verticalAlign=middle;resizable=0;points=[];autosize=1;strokeColor=none;fillColor=none;container=0;" vertex="1" parent="osSL_Dc_ii8sS_GC0yC_-92">
          <mxGeometry y="60" width="80" height="30" as="geometry" />
        </mxCell>
        <mxCell id="osSL_Dc_ii8sS_GC0yC_-94" value="" style="image;aspect=fixed;perimeter=ellipsePerimeter;html=1;align=center;shadow=0;dashed=0;spacingTop=3;image=img/lib/active_directory/generic_server.svg;container=0;" vertex="1" parent="osSL_Dc_ii8sS_GC0yC_-92">
          <mxGeometry x="15" width="28.000000000000004" height="50" as="geometry" />
        </mxCell>
        <mxCell id="osSL_Dc_ii8sS_GC0yC_-95" value="" style="outlineConnect=0;dashed=0;verticalLabelPosition=bottom;verticalAlign=top;align=center;html=1;shape=mxgraph.aws3.hosted_zone;fillColor=#80FF00;gradientColor=none;container=0;" vertex="1" parent="osSL_Dc_ii8sS_GC0yC_-92">
          <mxGeometry x="54" y="10" width="24" height="30" as="geometry" />
        </mxCell>
        <mxCell id="osSL_Dc_ii8sS_GC0yC_-96" style="edgeStyle=orthogonalEdgeStyle;rounded=0;orthogonalLoop=1;jettySize=auto;html=1;entryX=0;entryY=0.5;entryDx=0;entryDy=0;" edge="1" parent="1" target="osSL_Dc_ii8sS_GC0yC_-78">
          <mxGeometry relative="1" as="geometry">
            <mxPoint x="935.9999999999998" y="463" as="sourcePoint" />
          </mxGeometry>
        </mxCell>
        <mxCell id="osSL_Dc_ii8sS_GC0yC_-97" style="edgeStyle=orthogonalEdgeStyle;rounded=0;orthogonalLoop=1;jettySize=auto;html=1;entryX=0;entryY=0.5;entryDx=0;entryDy=0;" edge="1" parent="1" target="osSL_Dc_ii8sS_GC0yC_-86">
          <mxGeometry relative="1" as="geometry">
            <mxPoint x="935.9999999999998" y="463" as="sourcePoint" />
          </mxGeometry>
        </mxCell>
        <mxCell id="osSL_Dc_ii8sS_GC0yC_-98" style="edgeStyle=orthogonalEdgeStyle;rounded=0;orthogonalLoop=1;jettySize=auto;html=1;entryX=0;entryY=0.5;entryDx=0;entryDy=0;" edge="1" parent="1" target="osSL_Dc_ii8sS_GC0yC_-90">
          <mxGeometry relative="1" as="geometry">
            <mxPoint x="935.9999999999998" y="463" as="sourcePoint" />
          </mxGeometry>
        </mxCell>
        <mxCell id="osSL_Dc_ii8sS_GC0yC_-99" style="edgeStyle=orthogonalEdgeStyle;rounded=0;orthogonalLoop=1;jettySize=auto;html=1;entryX=0;entryY=0.5;entryDx=0;entryDy=0;" edge="1" parent="1" target="osSL_Dc_ii8sS_GC0yC_-94">
          <mxGeometry relative="1" as="geometry">
            <mxPoint x="935.9999999999998" y="463" as="sourcePoint" />
          </mxGeometry>
        </mxCell>
        <mxCell id="osSL_Dc_ii8sS_GC0yC_-100" value="&amp;nbsp; &amp;nbsp; &amp;nbsp; &amp;nbsp;omni init" style="rounded=1;whiteSpace=wrap;html=1;verticalAlign=top;align=left;" vertex="1" parent="1">
          <mxGeometry x="846" y="448" width="90" height="30" as="geometry" />
        </mxCell>
        <mxCell id="osSL_Dc_ii8sS_GC0yC_-101" value="" style="editableCssRules=.*;html=1;shape=image;verticalLabelPosition=bottom;labelBackgroundColor=#ffffff;verticalAlign=top;aspect=fixed;imageAspect=0;image=data:image/svg+xml,PHN2ZyB4bWxucz0iaHR0cDovL3d3dy53My5vcmcvMjAwMC9zdmciIHhtbG5zOnY9Imh0dHBzOi8vdmVjdGEuaW8vbmFubyIgd2lkdGg9IjM3NS44NTAyODQ2NDQwODg3MyIgaGVpZ2h0PSIzNTMuODA1Nzc3NDY3NzY5NyIgdmlld0JveD0iMC4yNTU5OTk1NjUxMjQ1MTE3IDAuNDI2MDAwMDI4ODQ4NjQ4MDcgOTkuNDQzNjU2OTIxMzg2NzIgOTMuNjExMDAwMDYxMDM1MTYiPiYjeGE7PHN0eWxlIHR5cGU9InRleHQvY3NzIj4mI3hhOwkuc3Qwe2ZpbGw6I2FlY2JmYTt9JiN4YTsJLnN0MXtmaWxsOiNmZmY7fSYjeGE7CS5zdDJ7ZmlsbDojNDI4NWY0O30mI3hhOwkuc3Qze2ZpbGw6IzY2OWRmNjt9JiN4YTs8L3N0eWxlPiYjeGE7CTxwYXRoIGNsYXNzPSJzdDAiIGQ9Ik04LjU0NCA3MS45MjhjLTQuODE1IDAtOC4yODgtMy44ODktOC4yODgtOC4zMjdWNy45ODNDLjI1NyA0LjY1IDQuMDcyLjQyNiA3LjQ5NS40MjZoODMuOTUyYzQuNzA1IDAgOC4yNTIgMy4zNzkgOC4yNTIgOC4xNzR2NTEuNDk1Yy4wNDcgNy41OTUtMi40NyAxMS44MzQtOS4wMTIgMTEuODM0eiIvPiYjeGE7CTxwYXRoIGNsYXNzPSJzdDEiIGQ9Ik0yOC4wNDYgNTcuMTV2LTkuOTIybDMxLjg4Mi0xMy44OTEtMzEuODgyLTEzLjY5MlY5LjI2MWw0NS44MDYgMTguOTg0djkuNzl6bTI1LjIzNSAzLjY3MXYtMTAuNTVoMjAuMDc1djEwLjU1eiIvPiYjeGE7CTxwYXRoIGNsYXNzPSJzdDIiIGQ9Ik00MC4wMyA4My41MjRWNzEuOTI4aDIwLjI5NXYxMS41OTZ6Ii8+JiN4YTsJPHBhdGggY2xhc3M9InN0MyIgZD0iTTY5Ljg3MyA4My41MjR2MTAuNTEzSDMwLjFWODMuNTI0eiIvPiYjeGE7PC9zdmc+;" vertex="1" parent="1">
          <mxGeometry x="836" y="430" width="40" height="38" as="geometry" />
        </mxCell>
      </root>
    </mxGraphModel>
  </diagram>
  <diagram id="Gt6NW5JlcZHukUjUHZYw" name="The Mega Cluster">
    <mxGraphModel dx="1418" dy="230" grid="1" gridSize="10" guides="1" tooltips="1" connect="1" arrows="1" fold="1" page="1" pageScale="1" pageWidth="850" pageHeight="1100" math="0" shadow="0">
      <root>
        <mxCell id="0" />
        <mxCell id="1" parent="0" />
        <mxCell id="gQ4FWM6OQZPmFA2LJ3ut-2" value="" style="shape=image;verticalLabelPosition=bottom;labelBackgroundColor=default;verticalAlign=top;aspect=fixed;imageAspect=0;image=https://mapsvg.com/maps/geo-calibrated/world.svg;movable=0;resizable=0;rotatable=0;deletable=0;editable=0;locked=1;connectable=0;" vertex="1" parent="1">
          <mxGeometry x="-640" y="90" width="11373.88" height="7500" as="geometry" />
        </mxCell>
        <mxCell id="gQ4FWM6OQZPmFA2LJ3ut-11" value="" style="rounded=1;whiteSpace=wrap;html=1;arcSize=3;movable=0;resizable=0;rotatable=0;deletable=0;editable=0;locked=1;connectable=0;" vertex="1" parent="1">
          <mxGeometry x="-40" y="3570" width="680" height="510" as="geometry" />
        </mxCell>
        <mxCell id="gQ4FWM6OQZPmFA2LJ3ut-34" value="" style="rounded=1;whiteSpace=wrap;html=1;fillColor=none;strokeColor=light-dark(#000000,#0000E6);verticalAlign=bottom;" vertex="1" parent="1">
          <mxGeometry x="120" y="3675" width="350.5" height="60" as="geometry" />
        </mxCell>
        <mxCell id="gQ4FWM6OQZPmFA2LJ3ut-107" value="" style="rounded=1;whiteSpace=wrap;html=1;fillColor=none;strokeColor=light-dark(#000000,#FF0000);verticalAlign=bottom;arcSize=5;" vertex="1" parent="1">
          <mxGeometry x="119.98" y="3737" width="350.5" height="173" as="geometry" />
        </mxCell>
        <mxCell id="gQ4FWM6OQZPmFA2LJ3ut-32" value="" style="rounded=1;whiteSpace=wrap;html=1;fillColor=none;strokeColor=light-dark(#000000,#FFFF00);verticalAlign=bottom;" vertex="1" parent="1">
          <mxGeometry x="215" y="3585" width="170" height="60" as="geometry" />
        </mxCell>
        <mxCell id="gQ4FWM6OQZPmFA2LJ3ut-3" value="US East" style="rounded=1;whiteSpace=wrap;html=1;" vertex="1" parent="1">
          <mxGeometry x="2150" y="4060" width="120" height="60" as="geometry" />
        </mxCell>
        <mxCell id="gQ4FWM6OQZPmFA2LJ3ut-4" value="US NW AWS" style="rounded=1;whiteSpace=wrap;html=1;" vertex="1" parent="1">
          <mxGeometry x="810" y="3850" width="120" height="60" as="geometry" />
        </mxCell>
        <mxCell id="gQ4FWM6OQZPmFA2LJ3ut-5" value="US SW" style="rounded=1;whiteSpace=wrap;html=1;" vertex="1" parent="1">
          <mxGeometry x="1460" y="4000" width="120" height="60" as="geometry" />
        </mxCell>
        <mxCell id="gQ4FWM6OQZPmFA2LJ3ut-6" value="US SW Digital Ocean&lt;div&gt;+&lt;/div&gt;&lt;div&gt;AWS&lt;/div&gt;" style="rounded=1;whiteSpace=wrap;html=1;" vertex="1" parent="1">
          <mxGeometry x="1100" y="4190" width="120" height="70" as="geometry" />
        </mxCell>
        <mxCell id="gQ4FWM6OQZPmFA2LJ3ut-7" value="CA E" style="rounded=1;whiteSpace=wrap;html=1;" vertex="1" parent="1">
          <mxGeometry x="1850" y="3390" width="120" height="60" as="geometry" />
        </mxCell>
        <mxCell id="gQ4FWM6OQZPmFA2LJ3ut-8" value="CA W AWS" style="rounded=1;whiteSpace=wrap;html=1;" vertex="1" parent="1">
          <mxGeometry x="940" y="3510" width="120" height="60" as="geometry" />
        </mxCell>
        <mxCell id="gQ4FWM6OQZPmFA2LJ3ut-9" value="" style="endArrow=none;html=1;rounded=0;exitX=0.997;exitY=0.466;exitDx=0;exitDy=0;exitPerimeter=0;entryX=0;entryY=0.5;entryDx=0;entryDy=0;" edge="1" parent="1" source="gQ4FWM6OQZPmFA2LJ3ut-11" target="gQ4FWM6OQZPmFA2LJ3ut-4">
          <mxGeometry width="50" height="50" relative="1" as="geometry">
            <mxPoint x="320" y="3570" as="sourcePoint" />
            <mxPoint x="940" y="3540" as="targetPoint" />
          </mxGeometry>
        </mxCell>
        <mxCell id="gQ4FWM6OQZPmFA2LJ3ut-10" value="" style="endArrow=none;html=1;rounded=0;entryX=0;entryY=0.5;entryDx=0;entryDy=0;" edge="1" parent="1" source="gQ4FWM6OQZPmFA2LJ3ut-11" target="gQ4FWM6OQZPmFA2LJ3ut-4">
          <mxGeometry width="50" height="50" relative="1" as="geometry">
            <mxPoint x="320" y="3720" as="sourcePoint" />
            <mxPoint x="940" y="3540" as="targetPoint" />
          </mxGeometry>
        </mxCell>
        <mxCell id="gQ4FWM6OQZPmFA2LJ3ut-12" value="US NW Nas 1" style="image;points=[];aspect=fixed;html=1;align=center;shadow=0;dashed=0;image=img/lib/allied_telesis/storage/Datacenter_Server_Storage_Unit_Large.svg;" vertex="1" parent="1">
          <mxGeometry x="-17" y="3590" width="48.48" height="50" as="geometry" />
        </mxCell>
        <mxCell id="gQ4FWM6OQZPmFA2LJ3ut-13" value="US NW Nas 2" style="image;points=[];aspect=fixed;html=1;align=center;shadow=0;dashed=0;image=img/lib/allied_telesis/storage/Datacenter_Server_Storage_Unit_Large.svg;" vertex="1" parent="1">
          <mxGeometry x="-17" y="3667" width="48.48" height="50" as="geometry" />
        </mxCell>
        <mxCell id="gQ4FWM6OQZPmFA2LJ3ut-14" value="US NW Nas 3" style="image;points=[];aspect=fixed;html=1;align=center;shadow=0;dashed=0;image=img/lib/allied_telesis/storage/Datacenter_Server_Storage_Unit_Large.svg;" vertex="1" parent="1">
          <mxGeometry x="-17" y="3747" width="48.48" height="50" as="geometry" />
        </mxCell>
        <mxCell id="gQ4FWM6OQZPmFA2LJ3ut-15" value="US NW Nas 4" style="image;points=[];aspect=fixed;html=1;align=center;shadow=0;dashed=0;image=img/lib/allied_telesis/storage/Datacenter_Server_Storage_Unit_Large.svg;" vertex="1" parent="1">
          <mxGeometry x="-17" y="3824" width="48.48" height="50" as="geometry" />
        </mxCell>
        <mxCell id="gQ4FWM6OQZPmFA2LJ3ut-16" value="" style="image;aspect=fixed;perimeter=ellipsePerimeter;html=1;align=center;shadow=0;dashed=0;spacingTop=3;image=img/lib/active_directory/generic_server.svg;" vertex="1" parent="1">
          <mxGeometry x="236" y="3590" width="28.000000000000004" height="50" as="geometry" />
        </mxCell>
        <mxCell id="gQ4FWM6OQZPmFA2LJ3ut-17" value="" style="image;aspect=fixed;perimeter=ellipsePerimeter;html=1;align=center;shadow=0;dashed=0;spacingTop=3;image=img/lib/active_directory/generic_server.svg;" vertex="1" parent="1">
          <mxGeometry x="286" y="3590" width="28.000000000000004" height="50" as="geometry" />
        </mxCell>
        <mxCell id="gQ4FWM6OQZPmFA2LJ3ut-18" value="" style="image;aspect=fixed;perimeter=ellipsePerimeter;html=1;align=center;shadow=0;dashed=0;spacingTop=3;image=img/lib/active_directory/generic_server.svg;" vertex="1" parent="1">
          <mxGeometry x="336" y="3590" width="28.000000000000004" height="50" as="geometry" />
        </mxCell>
        <mxCell id="gQ4FWM6OQZPmFA2LJ3ut-20" value="" style="image;aspect=fixed;perimeter=ellipsePerimeter;html=1;align=center;shadow=0;dashed=0;spacingTop=3;image=img/lib/active_directory/generic_server.svg;" vertex="1" parent="1">
          <mxGeometry x="136" y="3680" width="28.000000000000004" height="50" as="geometry" />
        </mxCell>
        <mxCell id="gQ4FWM6OQZPmFA2LJ3ut-21" value="" style="image;aspect=fixed;perimeter=ellipsePerimeter;html=1;align=center;shadow=0;dashed=0;spacingTop=3;image=img/lib/active_directory/generic_server.svg;" vertex="1" parent="1">
          <mxGeometry x="186" y="3680" width="28.000000000000004" height="50" as="geometry" />
        </mxCell>
        <mxCell id="gQ4FWM6OQZPmFA2LJ3ut-22" value="" style="image;aspect=fixed;perimeter=ellipsePerimeter;html=1;align=center;shadow=0;dashed=0;spacingTop=3;image=img/lib/active_directory/generic_server.svg;" vertex="1" parent="1">
          <mxGeometry x="236" y="3680" width="28.000000000000004" height="50" as="geometry" />
        </mxCell>
        <mxCell id="gQ4FWM6OQZPmFA2LJ3ut-23" value="" style="image;aspect=fixed;perimeter=ellipsePerimeter;html=1;align=center;shadow=0;dashed=0;spacingTop=3;image=img/lib/active_directory/generic_server.svg;" vertex="1" parent="1">
          <mxGeometry x="431" y="3680" width="28.000000000000004" height="50" as="geometry" />
        </mxCell>
        <mxCell id="gQ4FWM6OQZPmFA2LJ3ut-24" value="" style="image;aspect=fixed;perimeter=ellipsePerimeter;html=1;align=center;shadow=0;dashed=0;spacingTop=3;image=img/lib/active_directory/generic_server.svg;" vertex="1" parent="1">
          <mxGeometry x="386" y="3680" width="28.000000000000004" height="50" as="geometry" />
        </mxCell>
        <mxCell id="gQ4FWM6OQZPmFA2LJ3ut-25" value="" style="image;aspect=fixed;perimeter=ellipsePerimeter;html=1;align=center;shadow=0;dashed=0;spacingTop=3;image=img/lib/active_directory/generic_server.svg;" vertex="1" parent="1">
          <mxGeometry x="336" y="3680" width="28.000000000000004" height="50" as="geometry" />
        </mxCell>
        <mxCell id="gQ4FWM6OQZPmFA2LJ3ut-31" value="" style="image;aspect=fixed;perimeter=ellipsePerimeter;html=1;align=center;shadow=0;dashed=0;spacingTop=3;image=img/lib/active_directory/generic_server.svg;" vertex="1" parent="1">
          <mxGeometry x="286" y="3680" width="28.000000000000004" height="50" as="geometry" />
        </mxCell>
        <mxCell id="gQ4FWM6OQZPmFA2LJ3ut-33" value="US NW Orchestrators" style="text;html=1;align=center;verticalAlign=middle;whiteSpace=wrap;rounded=0;fontColor=light-dark(#000000,#FFFF00);" vertex="1" parent="1">
          <mxGeometry x="386" y="3600" width="134" height="30" as="geometry" />
        </mxCell>
        <mxCell id="gQ4FWM6OQZPmFA2LJ3ut-35" value="US NW Director VMs" style="text;html=1;align=center;verticalAlign=middle;whiteSpace=wrap;rounded=0;fontColor=light-dark(#000000,#0000E6);" vertex="1" parent="1">
          <mxGeometry x="471.5" y="3690" width="134" height="30" as="geometry" />
        </mxCell>
        <mxCell id="gQ4FWM6OQZPmFA2LJ3ut-36" value="" style="image;sketch=0;aspect=fixed;html=1;points=[];align=center;fontSize=12;image=img/lib/mscae/Virtual_Machine_2.svg;" vertex="1" parent="1">
          <mxGeometry x="140.76999999999998" y="3740" width="18.48" height="17" as="geometry" />
        </mxCell>
        <mxCell id="gQ4FWM6OQZPmFA2LJ3ut-37" value="" style="image;sketch=0;aspect=fixed;html=1;points=[];align=center;fontSize=12;image=img/lib/mscae/Virtual_Machine_2.svg;" vertex="1" parent="1">
          <mxGeometry x="190.76999999999998" y="3740" width="18.48" height="17" as="geometry" />
        </mxCell>
        <mxCell id="gQ4FWM6OQZPmFA2LJ3ut-38" value="" style="image;sketch=0;aspect=fixed;html=1;points=[];align=center;fontSize=12;image=img/lib/mscae/Virtual_Machine_2.svg;" vertex="1" parent="1">
          <mxGeometry x="236.01" y="3740" width="18.48" height="17" as="geometry" />
        </mxCell>
        <mxCell id="gQ4FWM6OQZPmFA2LJ3ut-39" value="" style="image;sketch=0;aspect=fixed;html=1;points=[];align=center;fontSize=12;image=img/lib/mscae/Virtual_Machine_2.svg;" vertex="1" parent="1">
          <mxGeometry x="286.01" y="3740" width="18.48" height="17" as="geometry" />
        </mxCell>
        <mxCell id="gQ4FWM6OQZPmFA2LJ3ut-40" value="" style="image;sketch=0;aspect=fixed;html=1;points=[];align=center;fontSize=12;image=img/lib/mscae/Virtual_Machine_2.svg;" vertex="1" parent="1">
          <mxGeometry x="336.01" y="3740" width="18.48" height="17" as="geometry" />
        </mxCell>
        <mxCell id="gQ4FWM6OQZPmFA2LJ3ut-41" value="" style="image;sketch=0;aspect=fixed;html=1;points=[];align=center;fontSize=12;image=img/lib/mscae/Virtual_Machine_2.svg;" vertex="1" parent="1">
          <mxGeometry x="386.01" y="3740" width="18.48" height="17" as="geometry" />
        </mxCell>
        <mxCell id="gQ4FWM6OQZPmFA2LJ3ut-42" value="" style="image;sketch=0;aspect=fixed;html=1;points=[];align=center;fontSize=12;image=img/lib/mscae/Virtual_Machine_2.svg;" vertex="1" parent="1">
          <mxGeometry x="431.25" y="3740" width="18.48" height="17" as="geometry" />
        </mxCell>
        <mxCell id="gQ4FWM6OQZPmFA2LJ3ut-43" value="" style="image;sketch=0;aspect=fixed;html=1;points=[];align=center;fontSize=12;image=img/lib/mscae/Virtual_Machine_2.svg;" vertex="1" parent="1">
          <mxGeometry x="140.76999999999998" y="3757" width="18.48" height="17" as="geometry" />
        </mxCell>
        <mxCell id="gQ4FWM6OQZPmFA2LJ3ut-44" value="" style="image;sketch=0;aspect=fixed;html=1;points=[];align=center;fontSize=12;image=img/lib/mscae/Virtual_Machine_2.svg;" vertex="1" parent="1">
          <mxGeometry x="140.76999999999998" y="3774" width="18.48" height="17" as="geometry" />
        </mxCell>
        <mxCell id="gQ4FWM6OQZPmFA2LJ3ut-45" value="" style="image;sketch=0;aspect=fixed;html=1;points=[];align=center;fontSize=12;image=img/lib/mscae/Virtual_Machine_2.svg;" vertex="1" parent="1">
          <mxGeometry x="190.76999999999998" y="3774" width="18.48" height="17" as="geometry" />
        </mxCell>
        <mxCell id="gQ4FWM6OQZPmFA2LJ3ut-46" value="" style="image;sketch=0;aspect=fixed;html=1;points=[];align=center;fontSize=12;image=img/lib/mscae/Virtual_Machine_2.svg;" vertex="1" parent="1">
          <mxGeometry x="236.01" y="3774" width="18.48" height="17" as="geometry" />
        </mxCell>
        <mxCell id="gQ4FWM6OQZPmFA2LJ3ut-47" value="" style="image;sketch=0;aspect=fixed;html=1;points=[];align=center;fontSize=12;image=img/lib/mscae/Virtual_Machine_2.svg;" vertex="1" parent="1">
          <mxGeometry x="286.01" y="3774" width="18.48" height="17" as="geometry" />
        </mxCell>
        <mxCell id="gQ4FWM6OQZPmFA2LJ3ut-48" value="" style="image;sketch=0;aspect=fixed;html=1;points=[];align=center;fontSize=12;image=img/lib/mscae/Virtual_Machine_2.svg;" vertex="1" parent="1">
          <mxGeometry x="336.01" y="3774" width="18.48" height="17" as="geometry" />
        </mxCell>
        <mxCell id="gQ4FWM6OQZPmFA2LJ3ut-49" value="" style="image;sketch=0;aspect=fixed;html=1;points=[];align=center;fontSize=12;image=img/lib/mscae/Virtual_Machine_2.svg;" vertex="1" parent="1">
          <mxGeometry x="386.01" y="3774" width="18.48" height="17" as="geometry" />
        </mxCell>
        <mxCell id="gQ4FWM6OQZPmFA2LJ3ut-50" value="" style="image;sketch=0;aspect=fixed;html=1;points=[];align=center;fontSize=12;image=img/lib/mscae/Virtual_Machine_2.svg;" vertex="1" parent="1">
          <mxGeometry x="431.25" y="3774" width="18.48" height="17" as="geometry" />
        </mxCell>
        <mxCell id="gQ4FWM6OQZPmFA2LJ3ut-51" value="" style="image;sketch=0;aspect=fixed;html=1;points=[];align=center;fontSize=12;image=img/lib/mscae/Virtual_Machine_2.svg;" vertex="1" parent="1">
          <mxGeometry x="140.77999999999997" y="3791" width="18.48" height="17" as="geometry" />
        </mxCell>
        <mxCell id="gQ4FWM6OQZPmFA2LJ3ut-52" value="" style="image;sketch=0;aspect=fixed;html=1;points=[];align=center;fontSize=12;image=img/lib/mscae/Virtual_Machine_2.svg;" vertex="1" parent="1">
          <mxGeometry x="190.76999999999998" y="3757" width="18.48" height="17" as="geometry" />
        </mxCell>
        <mxCell id="gQ4FWM6OQZPmFA2LJ3ut-53" value="" style="image;sketch=0;aspect=fixed;html=1;points=[];align=center;fontSize=12;image=img/lib/mscae/Virtual_Machine_2.svg;" vertex="1" parent="1">
          <mxGeometry x="236.01" y="3757" width="18.48" height="17" as="geometry" />
        </mxCell>
        <mxCell id="gQ4FWM6OQZPmFA2LJ3ut-54" value="" style="image;sketch=0;aspect=fixed;html=1;points=[];align=center;fontSize=12;image=img/lib/mscae/Virtual_Machine_2.svg;" vertex="1" parent="1">
          <mxGeometry x="286.01" y="3757" width="18.48" height="17" as="geometry" />
        </mxCell>
        <mxCell id="gQ4FWM6OQZPmFA2LJ3ut-55" value="" style="image;sketch=0;aspect=fixed;html=1;points=[];align=center;fontSize=12;image=img/lib/mscae/Virtual_Machine_2.svg;" vertex="1" parent="1">
          <mxGeometry x="336.01" y="3757" width="18.48" height="17" as="geometry" />
        </mxCell>
        <mxCell id="gQ4FWM6OQZPmFA2LJ3ut-56" value="" style="image;sketch=0;aspect=fixed;html=1;points=[];align=center;fontSize=12;image=img/lib/mscae/Virtual_Machine_2.svg;" vertex="1" parent="1">
          <mxGeometry x="386.01" y="3757" width="18.48" height="17" as="geometry" />
        </mxCell>
        <mxCell id="gQ4FWM6OQZPmFA2LJ3ut-57" value="" style="image;sketch=0;aspect=fixed;html=1;points=[];align=center;fontSize=12;image=img/lib/mscae/Virtual_Machine_2.svg;" vertex="1" parent="1">
          <mxGeometry x="431.25" y="3757" width="18.48" height="17" as="geometry" />
        </mxCell>
        <mxCell id="gQ4FWM6OQZPmFA2LJ3ut-58" value="" style="image;sketch=0;aspect=fixed;html=1;points=[];align=center;fontSize=12;image=img/lib/mscae/Virtual_Machine_2.svg;" vertex="1" parent="1">
          <mxGeometry x="190.77999999999997" y="3791" width="18.48" height="17" as="geometry" />
        </mxCell>
        <mxCell id="gQ4FWM6OQZPmFA2LJ3ut-59" value="" style="image;sketch=0;aspect=fixed;html=1;points=[];align=center;fontSize=12;image=img/lib/mscae/Virtual_Machine_2.svg;" vertex="1" parent="1">
          <mxGeometry x="236.01999999999998" y="3791" width="18.48" height="17" as="geometry" />
        </mxCell>
        <mxCell id="gQ4FWM6OQZPmFA2LJ3ut-60" value="" style="image;sketch=0;aspect=fixed;html=1;points=[];align=center;fontSize=12;image=img/lib/mscae/Virtual_Machine_2.svg;" vertex="1" parent="1">
          <mxGeometry x="286.02" y="3791" width="18.48" height="17" as="geometry" />
        </mxCell>
        <mxCell id="gQ4FWM6OQZPmFA2LJ3ut-61" value="" style="image;sketch=0;aspect=fixed;html=1;points=[];align=center;fontSize=12;image=img/lib/mscae/Virtual_Machine_2.svg;" vertex="1" parent="1">
          <mxGeometry x="336.02" y="3791" width="18.48" height="17" as="geometry" />
        </mxCell>
        <mxCell id="gQ4FWM6OQZPmFA2LJ3ut-62" value="" style="image;sketch=0;aspect=fixed;html=1;points=[];align=center;fontSize=12;image=img/lib/mscae/Virtual_Machine_2.svg;" vertex="1" parent="1">
          <mxGeometry x="386.02" y="3791" width="18.48" height="17" as="geometry" />
        </mxCell>
        <mxCell id="gQ4FWM6OQZPmFA2LJ3ut-63" value="" style="image;sketch=0;aspect=fixed;html=1;points=[];align=center;fontSize=12;image=img/lib/mscae/Virtual_Machine_2.svg;" vertex="1" parent="1">
          <mxGeometry x="431.26" y="3791" width="18.48" height="17" as="geometry" />
        </mxCell>
        <mxCell id="gQ4FWM6OQZPmFA2LJ3ut-64" value="" style="image;sketch=0;aspect=fixed;html=1;points=[];align=center;fontSize=12;image=img/lib/mscae/Virtual_Machine_2.svg;" vertex="1" parent="1">
          <mxGeometry x="140.76" y="3808" width="18.48" height="17" as="geometry" />
        </mxCell>
        <mxCell id="gQ4FWM6OQZPmFA2LJ3ut-65" value="" style="image;sketch=0;aspect=fixed;html=1;points=[];align=center;fontSize=12;image=img/lib/mscae/Virtual_Machine_2.svg;" vertex="1" parent="1">
          <mxGeometry x="190.76" y="3808" width="18.48" height="17" as="geometry" />
        </mxCell>
        <mxCell id="gQ4FWM6OQZPmFA2LJ3ut-66" value="" style="image;sketch=0;aspect=fixed;html=1;points=[];align=center;fontSize=12;image=img/lib/mscae/Virtual_Machine_2.svg;" vertex="1" parent="1">
          <mxGeometry x="236" y="3808" width="18.48" height="17" as="geometry" />
        </mxCell>
        <mxCell id="gQ4FWM6OQZPmFA2LJ3ut-67" value="" style="image;sketch=0;aspect=fixed;html=1;points=[];align=center;fontSize=12;image=img/lib/mscae/Virtual_Machine_2.svg;" vertex="1" parent="1">
          <mxGeometry x="286" y="3808" width="18.48" height="17" as="geometry" />
        </mxCell>
        <mxCell id="gQ4FWM6OQZPmFA2LJ3ut-68" value="" style="image;sketch=0;aspect=fixed;html=1;points=[];align=center;fontSize=12;image=img/lib/mscae/Virtual_Machine_2.svg;" vertex="1" parent="1">
          <mxGeometry x="336" y="3808" width="18.48" height="17" as="geometry" />
        </mxCell>
        <mxCell id="gQ4FWM6OQZPmFA2LJ3ut-69" value="" style="image;sketch=0;aspect=fixed;html=1;points=[];align=center;fontSize=12;image=img/lib/mscae/Virtual_Machine_2.svg;" vertex="1" parent="1">
          <mxGeometry x="386" y="3808" width="18.48" height="17" as="geometry" />
        </mxCell>
        <mxCell id="gQ4FWM6OQZPmFA2LJ3ut-70" value="" style="image;sketch=0;aspect=fixed;html=1;points=[];align=center;fontSize=12;image=img/lib/mscae/Virtual_Machine_2.svg;" vertex="1" parent="1">
          <mxGeometry x="431.24" y="3808" width="18.48" height="17" as="geometry" />
        </mxCell>
        <mxCell id="gQ4FWM6OQZPmFA2LJ3ut-71" value="" style="image;sketch=0;aspect=fixed;html=1;points=[];align=center;fontSize=12;image=img/lib/mscae/Virtual_Machine_2.svg;" vertex="1" parent="1">
          <mxGeometry x="140.76" y="3825" width="18.48" height="17" as="geometry" />
        </mxCell>
        <mxCell id="gQ4FWM6OQZPmFA2LJ3ut-72" value="" style="image;sketch=0;aspect=fixed;html=1;points=[];align=center;fontSize=12;image=img/lib/mscae/Virtual_Machine_2.svg;" vertex="1" parent="1">
          <mxGeometry x="140.76" y="3842" width="18.48" height="17" as="geometry" />
        </mxCell>
        <mxCell id="gQ4FWM6OQZPmFA2LJ3ut-73" value="" style="image;sketch=0;aspect=fixed;html=1;points=[];align=center;fontSize=12;image=img/lib/mscae/Virtual_Machine_2.svg;" vertex="1" parent="1">
          <mxGeometry x="190.76" y="3842" width="18.48" height="17" as="geometry" />
        </mxCell>
        <mxCell id="gQ4FWM6OQZPmFA2LJ3ut-74" value="" style="image;sketch=0;aspect=fixed;html=1;points=[];align=center;fontSize=12;image=img/lib/mscae/Virtual_Machine_2.svg;" vertex="1" parent="1">
          <mxGeometry x="236" y="3842" width="18.48" height="17" as="geometry" />
        </mxCell>
        <mxCell id="gQ4FWM6OQZPmFA2LJ3ut-75" value="" style="image;sketch=0;aspect=fixed;html=1;points=[];align=center;fontSize=12;image=img/lib/mscae/Virtual_Machine_2.svg;" vertex="1" parent="1">
          <mxGeometry x="286" y="3842" width="18.48" height="17" as="geometry" />
        </mxCell>
        <mxCell id="gQ4FWM6OQZPmFA2LJ3ut-76" value="" style="image;sketch=0;aspect=fixed;html=1;points=[];align=center;fontSize=12;image=img/lib/mscae/Virtual_Machine_2.svg;" vertex="1" parent="1">
          <mxGeometry x="336" y="3842" width="18.48" height="17" as="geometry" />
        </mxCell>
        <mxCell id="gQ4FWM6OQZPmFA2LJ3ut-77" value="" style="image;sketch=0;aspect=fixed;html=1;points=[];align=center;fontSize=12;image=img/lib/mscae/Virtual_Machine_2.svg;" vertex="1" parent="1">
          <mxGeometry x="386" y="3842" width="18.48" height="17" as="geometry" />
        </mxCell>
        <mxCell id="gQ4FWM6OQZPmFA2LJ3ut-78" value="" style="image;sketch=0;aspect=fixed;html=1;points=[];align=center;fontSize=12;image=img/lib/mscae/Virtual_Machine_2.svg;" vertex="1" parent="1">
          <mxGeometry x="431.24" y="3842" width="18.48" height="17" as="geometry" />
        </mxCell>
        <mxCell id="gQ4FWM6OQZPmFA2LJ3ut-79" value="" style="image;sketch=0;aspect=fixed;html=1;points=[];align=center;fontSize=12;image=img/lib/mscae/Virtual_Machine_2.svg;" vertex="1" parent="1">
          <mxGeometry x="140.76999999999998" y="3859" width="18.48" height="17" as="geometry" />
        </mxCell>
        <mxCell id="gQ4FWM6OQZPmFA2LJ3ut-80" value="" style="image;sketch=0;aspect=fixed;html=1;points=[];align=center;fontSize=12;image=img/lib/mscae/Virtual_Machine_2.svg;" vertex="1" parent="1">
          <mxGeometry x="190.76" y="3825" width="18.48" height="17" as="geometry" />
        </mxCell>
        <mxCell id="gQ4FWM6OQZPmFA2LJ3ut-81" value="" style="image;sketch=0;aspect=fixed;html=1;points=[];align=center;fontSize=12;image=img/lib/mscae/Virtual_Machine_2.svg;" vertex="1" parent="1">
          <mxGeometry x="236" y="3825" width="18.48" height="17" as="geometry" />
        </mxCell>
        <mxCell id="gQ4FWM6OQZPmFA2LJ3ut-82" value="" style="image;sketch=0;aspect=fixed;html=1;points=[];align=center;fontSize=12;image=img/lib/mscae/Virtual_Machine_2.svg;" vertex="1" parent="1">
          <mxGeometry x="286" y="3825" width="18.48" height="17" as="geometry" />
        </mxCell>
        <mxCell id="gQ4FWM6OQZPmFA2LJ3ut-83" value="" style="image;sketch=0;aspect=fixed;html=1;points=[];align=center;fontSize=12;image=img/lib/mscae/Virtual_Machine_2.svg;" vertex="1" parent="1">
          <mxGeometry x="336" y="3825" width="18.48" height="17" as="geometry" />
        </mxCell>
        <mxCell id="gQ4FWM6OQZPmFA2LJ3ut-84" value="" style="image;sketch=0;aspect=fixed;html=1;points=[];align=center;fontSize=12;image=img/lib/mscae/Virtual_Machine_2.svg;" vertex="1" parent="1">
          <mxGeometry x="386" y="3825" width="18.48" height="17" as="geometry" />
        </mxCell>
        <mxCell id="gQ4FWM6OQZPmFA2LJ3ut-85" value="" style="image;sketch=0;aspect=fixed;html=1;points=[];align=center;fontSize=12;image=img/lib/mscae/Virtual_Machine_2.svg;" vertex="1" parent="1">
          <mxGeometry x="431.24" y="3825" width="18.48" height="17" as="geometry" />
        </mxCell>
        <mxCell id="gQ4FWM6OQZPmFA2LJ3ut-86" value="" style="image;sketch=0;aspect=fixed;html=1;points=[];align=center;fontSize=12;image=img/lib/mscae/Virtual_Machine_2.svg;" vertex="1" parent="1">
          <mxGeometry x="190.76999999999998" y="3859" width="18.48" height="17" as="geometry" />
        </mxCell>
        <mxCell id="gQ4FWM6OQZPmFA2LJ3ut-87" value="" style="image;sketch=0;aspect=fixed;html=1;points=[];align=center;fontSize=12;image=img/lib/mscae/Virtual_Machine_2.svg;" vertex="1" parent="1">
          <mxGeometry x="236.01" y="3859" width="18.48" height="17" as="geometry" />
        </mxCell>
        <mxCell id="gQ4FWM6OQZPmFA2LJ3ut-88" value="" style="image;sketch=0;aspect=fixed;html=1;points=[];align=center;fontSize=12;image=img/lib/mscae/Virtual_Machine_2.svg;" vertex="1" parent="1">
          <mxGeometry x="286.01" y="3859" width="18.48" height="17" as="geometry" />
        </mxCell>
        <mxCell id="gQ4FWM6OQZPmFA2LJ3ut-89" value="" style="image;sketch=0;aspect=fixed;html=1;points=[];align=center;fontSize=12;image=img/lib/mscae/Virtual_Machine_2.svg;" vertex="1" parent="1">
          <mxGeometry x="336.01" y="3859" width="18.48" height="17" as="geometry" />
        </mxCell>
        <mxCell id="gQ4FWM6OQZPmFA2LJ3ut-90" value="" style="image;sketch=0;aspect=fixed;html=1;points=[];align=center;fontSize=12;image=img/lib/mscae/Virtual_Machine_2.svg;" vertex="1" parent="1">
          <mxGeometry x="386.01" y="3859" width="18.48" height="17" as="geometry" />
        </mxCell>
        <mxCell id="gQ4FWM6OQZPmFA2LJ3ut-91" value="" style="image;sketch=0;aspect=fixed;html=1;points=[];align=center;fontSize=12;image=img/lib/mscae/Virtual_Machine_2.svg;" vertex="1" parent="1">
          <mxGeometry x="431.25" y="3859" width="18.48" height="17" as="geometry" />
        </mxCell>
        <mxCell id="gQ4FWM6OQZPmFA2LJ3ut-92" value="" style="image;sketch=0;aspect=fixed;html=1;points=[];align=center;fontSize=12;image=img/lib/mscae/Virtual_Machine_2.svg;" vertex="1" parent="1">
          <mxGeometry x="140.75" y="3876" width="18.48" height="17" as="geometry" />
        </mxCell>
        <mxCell id="gQ4FWM6OQZPmFA2LJ3ut-93" value="" style="image;sketch=0;aspect=fixed;html=1;points=[];align=center;fontSize=12;image=img/lib/mscae/Virtual_Machine_2.svg;" vertex="1" parent="1">
          <mxGeometry x="190.75" y="3876" width="18.48" height="17" as="geometry" />
        </mxCell>
        <mxCell id="gQ4FWM6OQZPmFA2LJ3ut-94" value="" style="image;sketch=0;aspect=fixed;html=1;points=[];align=center;fontSize=12;image=img/lib/mscae/Virtual_Machine_2.svg;" vertex="1" parent="1">
          <mxGeometry x="235.99" y="3876" width="18.48" height="17" as="geometry" />
        </mxCell>
        <mxCell id="gQ4FWM6OQZPmFA2LJ3ut-95" value="" style="image;sketch=0;aspect=fixed;html=1;points=[];align=center;fontSize=12;image=img/lib/mscae/Virtual_Machine_2.svg;" vertex="1" parent="1">
          <mxGeometry x="285.99" y="3876" width="18.48" height="17" as="geometry" />
        </mxCell>
        <mxCell id="gQ4FWM6OQZPmFA2LJ3ut-96" value="" style="image;sketch=0;aspect=fixed;html=1;points=[];align=center;fontSize=12;image=img/lib/mscae/Virtual_Machine_2.svg;" vertex="1" parent="1">
          <mxGeometry x="335.99" y="3876" width="18.48" height="17" as="geometry" />
        </mxCell>
        <mxCell id="gQ4FWM6OQZPmFA2LJ3ut-97" value="" style="image;sketch=0;aspect=fixed;html=1;points=[];align=center;fontSize=12;image=img/lib/mscae/Virtual_Machine_2.svg;" vertex="1" parent="1">
          <mxGeometry x="385.99" y="3876" width="18.48" height="17" as="geometry" />
        </mxCell>
        <mxCell id="gQ4FWM6OQZPmFA2LJ3ut-98" value="" style="image;sketch=0;aspect=fixed;html=1;points=[];align=center;fontSize=12;image=img/lib/mscae/Virtual_Machine_2.svg;" vertex="1" parent="1">
          <mxGeometry x="431.23" y="3876" width="18.48" height="17" as="geometry" />
        </mxCell>
        <mxCell id="gQ4FWM6OQZPmFA2LJ3ut-99" value="" style="image;sketch=0;aspect=fixed;html=1;points=[];align=center;fontSize=12;image=img/lib/mscae/Virtual_Machine_2.svg;" vertex="1" parent="1">
          <mxGeometry x="140.76" y="3893" width="18.48" height="17" as="geometry" />
        </mxCell>
        <mxCell id="gQ4FWM6OQZPmFA2LJ3ut-100" value="" style="image;sketch=0;aspect=fixed;html=1;points=[];align=center;fontSize=12;image=img/lib/mscae/Virtual_Machine_2.svg;" vertex="1" parent="1">
          <mxGeometry x="190.76" y="3893" width="18.48" height="17" as="geometry" />
        </mxCell>
        <mxCell id="gQ4FWM6OQZPmFA2LJ3ut-101" value="" style="image;sketch=0;aspect=fixed;html=1;points=[];align=center;fontSize=12;image=img/lib/mscae/Virtual_Machine_2.svg;" vertex="1" parent="1">
          <mxGeometry x="236" y="3893" width="18.48" height="17" as="geometry" />
        </mxCell>
        <mxCell id="gQ4FWM6OQZPmFA2LJ3ut-102" value="" style="image;sketch=0;aspect=fixed;html=1;points=[];align=center;fontSize=12;image=img/lib/mscae/Virtual_Machine_2.svg;" vertex="1" parent="1">
          <mxGeometry x="286" y="3893" width="18.48" height="17" as="geometry" />
        </mxCell>
        <mxCell id="gQ4FWM6OQZPmFA2LJ3ut-103" value="" style="image;sketch=0;aspect=fixed;html=1;points=[];align=center;fontSize=12;image=img/lib/mscae/Virtual_Machine_2.svg;" vertex="1" parent="1">
          <mxGeometry x="336" y="3893" width="18.48" height="17" as="geometry" />
        </mxCell>
        <mxCell id="gQ4FWM6OQZPmFA2LJ3ut-104" value="" style="image;sketch=0;aspect=fixed;html=1;points=[];align=center;fontSize=12;image=img/lib/mscae/Virtual_Machine_2.svg;" vertex="1" parent="1">
          <mxGeometry x="386" y="3893" width="18.48" height="17" as="geometry" />
        </mxCell>
        <mxCell id="gQ4FWM6OQZPmFA2LJ3ut-105" value="" style="image;sketch=0;aspect=fixed;html=1;points=[];align=center;fontSize=12;image=img/lib/mscae/Virtual_Machine_2.svg;" vertex="1" parent="1">
          <mxGeometry x="431.24" y="3893" width="18.48" height="17" as="geometry" />
        </mxCell>
        <mxCell id="gQ4FWM6OQZPmFA2LJ3ut-106" value="US NW Director VMs" style="text;html=1;align=center;verticalAlign=middle;whiteSpace=wrap;rounded=0;fontColor=light-dark(#000000,#FF0000);" vertex="1" parent="1">
          <mxGeometry x="470.5" y="3808" width="134" height="30" as="geometry" />
        </mxCell>
        <mxCell id="gQ4FWM6OQZPmFA2LJ3ut-110" style="rounded=0;orthogonalLoop=1;jettySize=auto;html=1;exitX=0.25;exitY=1;exitDx=0;exitDy=0;entryX=1;entryY=0;entryDx=0;entryDy=0;fillColor=#6a00ff;strokeColor=#3700CC;" edge="1" parent="1" source="gQ4FWM6OQZPmFA2LJ3ut-16" target="gQ4FWM6OQZPmFA2LJ3ut-20">
          <mxGeometry relative="1" as="geometry" />
        </mxCell>
        <mxCell id="gQ4FWM6OQZPmFA2LJ3ut-111" style="rounded=0;orthogonalLoop=1;jettySize=auto;html=1;entryX=0.75;entryY=0;entryDx=0;entryDy=0;exitX=0.25;exitY=1;exitDx=0;exitDy=0;fillColor=#6a00ff;strokeColor=#3700CC;" edge="1" parent="1" source="gQ4FWM6OQZPmFA2LJ3ut-17" target="gQ4FWM6OQZPmFA2LJ3ut-22">
          <mxGeometry relative="1" as="geometry" />
        </mxCell>
        <mxCell id="gQ4FWM6OQZPmFA2LJ3ut-112" style="rounded=0;orthogonalLoop=1;jettySize=auto;html=1;exitX=0.75;exitY=0;exitDx=0;exitDy=0;entryX=0.25;entryY=1;entryDx=0;entryDy=0;endArrow=none;startFill=1;startArrow=classic;fillColor=#6a00ff;strokeColor=#3700CC;" edge="1" parent="1" source="gQ4FWM6OQZPmFA2LJ3ut-31" target="gQ4FWM6OQZPmFA2LJ3ut-17">
          <mxGeometry relative="1" as="geometry" />
        </mxCell>
        <mxCell id="gQ4FWM6OQZPmFA2LJ3ut-113" style="rounded=0;orthogonalLoop=1;jettySize=auto;html=1;exitX=0.25;exitY=1;exitDx=0;exitDy=0;entryX=0.75;entryY=0;entryDx=0;entryDy=0;fillColor=#6a00ff;strokeColor=#3700CC;" edge="1" parent="1" source="gQ4FWM6OQZPmFA2LJ3ut-16" target="gQ4FWM6OQZPmFA2LJ3ut-21">
          <mxGeometry relative="1" as="geometry" />
        </mxCell>
        <mxCell id="gQ4FWM6OQZPmFA2LJ3ut-114" style="rounded=0;orthogonalLoop=1;jettySize=auto;html=1;exitX=1;exitY=1;exitDx=0;exitDy=0;entryX=0.75;entryY=0;entryDx=0;entryDy=0;fillColor=#6a00ff;strokeColor=#3700CC;" edge="1" parent="1" source="gQ4FWM6OQZPmFA2LJ3ut-17" target="gQ4FWM6OQZPmFA2LJ3ut-25">
          <mxGeometry relative="1" as="geometry" />
        </mxCell>
        <mxCell id="gQ4FWM6OQZPmFA2LJ3ut-115" style="rounded=0;orthogonalLoop=1;jettySize=auto;html=1;exitX=0.25;exitY=1;exitDx=0;exitDy=0;entryX=0.75;entryY=0;entryDx=0;entryDy=0;fillColor=#6a00ff;strokeColor=#3700CC;" edge="1" parent="1" source="gQ4FWM6OQZPmFA2LJ3ut-18" target="gQ4FWM6OQZPmFA2LJ3ut-24">
          <mxGeometry relative="1" as="geometry" />
        </mxCell>
        <mxCell id="gQ4FWM6OQZPmFA2LJ3ut-116" style="rounded=0;orthogonalLoop=1;jettySize=auto;html=1;exitX=1;exitY=1;exitDx=0;exitDy=0;entryX=0.75;entryY=0;entryDx=0;entryDy=0;fillColor=#6a00ff;strokeColor=#3700CC;" edge="1" parent="1" source="gQ4FWM6OQZPmFA2LJ3ut-18" target="gQ4FWM6OQZPmFA2LJ3ut-23">
          <mxGeometry relative="1" as="geometry" />
        </mxCell>
        <mxCell id="gQ4FWM6OQZPmFA2LJ3ut-118" value="" style="rounded=1;whiteSpace=wrap;html=1;fillColor=none;strokeColor=light-dark(#000000,#FF0000);verticalAlign=bottom;arcSize=5;" vertex="1" parent="1">
          <mxGeometry x="119.98" y="3950" width="350.5" height="83" as="geometry" />
        </mxCell>
        <mxCell id="gQ4FWM6OQZPmFA2LJ3ut-125" value="" style="rounded=1;whiteSpace=wrap;html=1;fillColor=none;strokeColor=light-dark(#000000,#FF0000);verticalAlign=bottom;arcSize=5;" vertex="1" parent="1">
          <mxGeometry x="119.98" y="3950" width="350.5" height="83" as="geometry" />
        </mxCell>
        <mxCell id="gQ4FWM6OQZPmFA2LJ3ut-126" value="App Instance" style="shape=image;verticalLabelPosition=bottom;labelBackgroundColor=default;verticalAlign=middle;aspect=fixed;imageAspect=0;image=https://cdn-icons-png.freepik.com/512/2658/2658689.png;fontSize=3;strokeWidth=0;spacingBottom=8;" vertex="1" parent="1">
          <mxGeometry x="134.73" y="3957" width="13" height="13" as="geometry" />
        </mxCell>
        <mxCell id="gQ4FWM6OQZPmFA2LJ3ut-117" value="" style="endArrow=none;html=1;rounded=0;exitX=0.085;exitY=0.018;exitDx=0;exitDy=0;startArrow=classic;startFill=1;exitPerimeter=0;" edge="1" parent="1" source="gQ4FWM6OQZPmFA2LJ3ut-125">
          <mxGeometry width="50" height="50" relative="1" as="geometry">
            <mxPoint x="100" y="3960" as="sourcePoint" />
            <mxPoint x="150" y="3910" as="targetPoint" />
          </mxGeometry>
        </mxCell>
        <mxCell id="gQ4FWM6OQZPmFA2LJ3ut-128" value="App Instance" style="shape=image;verticalLabelPosition=bottom;labelBackgroundColor=default;verticalAlign=middle;aspect=fixed;imageAspect=0;image=https://cdn-icons-png.freepik.com/512/2658/2658689.png;fontSize=3;strokeWidth=0;spacingBottom=8;" vertex="1" parent="1">
          <mxGeometry x="153.73" y="3957" width="13" height="13" as="geometry" />
        </mxCell>
        <mxCell id="gQ4FWM6OQZPmFA2LJ3ut-129" value="App Instance" style="shape=image;verticalLabelPosition=bottom;labelBackgroundColor=default;verticalAlign=middle;aspect=fixed;imageAspect=0;image=https://cdn-icons-png.freepik.com/512/2658/2658689.png;fontSize=3;strokeWidth=0;spacingBottom=8;" vertex="1" parent="1">
          <mxGeometry x="173.73" y="3957" width="13" height="13" as="geometry" />
        </mxCell>
        <mxCell id="gQ4FWM6OQZPmFA2LJ3ut-130" value="App Instance" style="shape=image;verticalLabelPosition=bottom;labelBackgroundColor=default;verticalAlign=middle;aspect=fixed;imageAspect=0;image=https://cdn-icons-png.freepik.com/512/2658/2658689.png;fontSize=3;strokeWidth=0;spacingBottom=8;" vertex="1" parent="1">
          <mxGeometry x="192.73" y="3957" width="13" height="13" as="geometry" />
        </mxCell>
        <mxCell id="gQ4FWM6OQZPmFA2LJ3ut-135" value="App Instance" style="shape=image;verticalLabelPosition=bottom;labelBackgroundColor=default;verticalAlign=middle;aspect=fixed;imageAspect=0;image=https://cdn-icons-png.freepik.com/512/2658/2658689.png;fontSize=3;strokeWidth=0;spacingBottom=8;" vertex="1" parent="1">
          <mxGeometry x="211.73" y="3957" width="13" height="13" as="geometry" />
        </mxCell>
        <mxCell id="gQ4FWM6OQZPmFA2LJ3ut-136" value="App Instance" style="shape=image;verticalLabelPosition=bottom;labelBackgroundColor=default;verticalAlign=middle;aspect=fixed;imageAspect=0;image=https://cdn-icons-png.freepik.com/512/2658/2658689.png;fontSize=3;strokeWidth=0;spacingBottom=8;" vertex="1" parent="1">
          <mxGeometry x="230.73" y="3957" width="13" height="13" as="geometry" />
        </mxCell>
        <mxCell id="gQ4FWM6OQZPmFA2LJ3ut-137" value="App Instance" style="shape=image;verticalLabelPosition=bottom;labelBackgroundColor=default;verticalAlign=middle;aspect=fixed;imageAspect=0;image=https://cdn-icons-png.freepik.com/512/2658/2658689.png;fontSize=3;strokeWidth=0;spacingBottom=8;" vertex="1" parent="1">
          <mxGeometry x="250.73" y="3957" width="13" height="13" as="geometry" />
        </mxCell>
        <mxCell id="gQ4FWM6OQZPmFA2LJ3ut-138" value="App Instance" style="shape=image;verticalLabelPosition=bottom;labelBackgroundColor=default;verticalAlign=middle;aspect=fixed;imageAspect=0;image=https://cdn-icons-png.freepik.com/512/2658/2658689.png;fontSize=3;strokeWidth=0;spacingBottom=8;" vertex="1" parent="1">
          <mxGeometry x="269.73" y="3957" width="13" height="13" as="geometry" />
        </mxCell>
        <mxCell id="gQ4FWM6OQZPmFA2LJ3ut-139" value="App Instance" style="shape=image;verticalLabelPosition=bottom;labelBackgroundColor=default;verticalAlign=middle;aspect=fixed;imageAspect=0;image=https://cdn-icons-png.freepik.com/512/2658/2658689.png;fontSize=3;strokeWidth=0;spacingBottom=8;" vertex="1" parent="1">
          <mxGeometry x="288.72" y="3957" width="13" height="13" as="geometry" />
        </mxCell>
        <mxCell id="gQ4FWM6OQZPmFA2LJ3ut-140" value="App Instance" style="shape=image;verticalLabelPosition=bottom;labelBackgroundColor=default;verticalAlign=middle;aspect=fixed;imageAspect=0;image=https://cdn-icons-png.freepik.com/512/2658/2658689.png;fontSize=3;strokeWidth=0;spacingBottom=8;" vertex="1" parent="1">
          <mxGeometry x="307.72" y="3957" width="13" height="13" as="geometry" />
        </mxCell>
        <mxCell id="gQ4FWM6OQZPmFA2LJ3ut-141" value="App Instance" style="shape=image;verticalLabelPosition=bottom;labelBackgroundColor=default;verticalAlign=middle;aspect=fixed;imageAspect=0;image=https://cdn-icons-png.freepik.com/512/2658/2658689.png;fontSize=3;strokeWidth=0;spacingBottom=8;" vertex="1" parent="1">
          <mxGeometry x="327.72" y="3957" width="13" height="13" as="geometry" />
        </mxCell>
        <mxCell id="gQ4FWM6OQZPmFA2LJ3ut-142" value="App Instance" style="shape=image;verticalLabelPosition=bottom;labelBackgroundColor=default;verticalAlign=middle;aspect=fixed;imageAspect=0;image=https://cdn-icons-png.freepik.com/512/2658/2658689.png;fontSize=3;strokeWidth=0;spacingBottom=8;" vertex="1" parent="1">
          <mxGeometry x="346.72" y="3957" width="13" height="13" as="geometry" />
        </mxCell>
        <mxCell id="gQ4FWM6OQZPmFA2LJ3ut-143" value="App Instance" style="shape=image;verticalLabelPosition=bottom;labelBackgroundColor=default;verticalAlign=middle;aspect=fixed;imageAspect=0;image=https://cdn-icons-png.freepik.com/512/2658/2658689.png;fontSize=3;strokeWidth=0;spacingBottom=8;" vertex="1" parent="1">
          <mxGeometry x="365.72" y="3957" width="13" height="13" as="geometry" />
        </mxCell>
        <mxCell id="gQ4FWM6OQZPmFA2LJ3ut-144" value="App Instance" style="shape=image;verticalLabelPosition=bottom;labelBackgroundColor=default;verticalAlign=middle;aspect=fixed;imageAspect=0;image=https://cdn-icons-png.freepik.com/512/2658/2658689.png;fontSize=3;strokeWidth=0;spacingBottom=8;" vertex="1" parent="1">
          <mxGeometry x="384.72" y="3957" width="13" height="13" as="geometry" />
        </mxCell>
        <mxCell id="gQ4FWM6OQZPmFA2LJ3ut-145" value="App Instance" style="shape=image;verticalLabelPosition=bottom;labelBackgroundColor=default;verticalAlign=middle;aspect=fixed;imageAspect=0;image=https://cdn-icons-png.freepik.com/512/2658/2658689.png;fontSize=3;strokeWidth=0;spacingBottom=8;" vertex="1" parent="1">
          <mxGeometry x="404.72" y="3957" width="13" height="13" as="geometry" />
        </mxCell>
        <mxCell id="gQ4FWM6OQZPmFA2LJ3ut-146" value="App Instance" style="shape=image;verticalLabelPosition=bottom;labelBackgroundColor=default;verticalAlign=middle;aspect=fixed;imageAspect=0;image=https://cdn-icons-png.freepik.com/512/2658/2658689.png;fontSize=3;strokeWidth=0;spacingBottom=8;" vertex="1" parent="1">
          <mxGeometry x="423.72" y="3957" width="13" height="13" as="geometry" />
        </mxCell>
        <mxCell id="gQ4FWM6OQZPmFA2LJ3ut-147" value="App Instance" style="shape=image;verticalLabelPosition=bottom;labelBackgroundColor=default;verticalAlign=middle;aspect=fixed;imageAspect=0;image=https://cdn-icons-png.freepik.com/512/2658/2658689.png;fontSize=3;strokeWidth=0;spacingBottom=8;" vertex="1" parent="1">
          <mxGeometry x="442.73" y="3957" width="13" height="13" as="geometry" />
        </mxCell>
        <mxCell id="gQ4FWM6OQZPmFA2LJ3ut-149" value="App Instance" style="shape=image;verticalLabelPosition=bottom;labelBackgroundColor=default;verticalAlign=middle;aspect=fixed;imageAspect=0;image=https://cdn-icons-png.freepik.com/512/2658/2658689.png;fontSize=3;strokeWidth=0;spacingBottom=8;" vertex="1" parent="1">
          <mxGeometry x="134.72" y="3975" width="13" height="13" as="geometry" />
        </mxCell>
        <mxCell id="gQ4FWM6OQZPmFA2LJ3ut-150" value="App Instance" style="shape=image;verticalLabelPosition=bottom;labelBackgroundColor=default;verticalAlign=middle;aspect=fixed;imageAspect=0;image=https://cdn-icons-png.freepik.com/512/2658/2658689.png;fontSize=3;strokeWidth=0;spacingBottom=8;" vertex="1" parent="1">
          <mxGeometry x="153.72" y="3975" width="13" height="13" as="geometry" />
        </mxCell>
        <mxCell id="gQ4FWM6OQZPmFA2LJ3ut-151" value="App Instance" style="shape=image;verticalLabelPosition=bottom;labelBackgroundColor=default;verticalAlign=middle;aspect=fixed;imageAspect=0;image=https://cdn-icons-png.freepik.com/512/2658/2658689.png;fontSize=3;strokeWidth=0;spacingBottom=8;" vertex="1" parent="1">
          <mxGeometry x="173.72" y="3975" width="13" height="13" as="geometry" />
        </mxCell>
        <mxCell id="gQ4FWM6OQZPmFA2LJ3ut-152" value="App Instance" style="shape=image;verticalLabelPosition=bottom;labelBackgroundColor=default;verticalAlign=middle;aspect=fixed;imageAspect=0;image=https://cdn-icons-png.freepik.com/512/2658/2658689.png;fontSize=3;strokeWidth=0;spacingBottom=8;" vertex="1" parent="1">
          <mxGeometry x="192.72" y="3975" width="13" height="13" as="geometry" />
        </mxCell>
        <mxCell id="gQ4FWM6OQZPmFA2LJ3ut-153" value="App Instance" style="shape=image;verticalLabelPosition=bottom;labelBackgroundColor=default;verticalAlign=middle;aspect=fixed;imageAspect=0;image=https://cdn-icons-png.freepik.com/512/2658/2658689.png;fontSize=3;strokeWidth=0;spacingBottom=8;" vertex="1" parent="1">
          <mxGeometry x="211.72" y="3975" width="13" height="13" as="geometry" />
        </mxCell>
        <mxCell id="gQ4FWM6OQZPmFA2LJ3ut-154" value="App Instance" style="shape=image;verticalLabelPosition=bottom;labelBackgroundColor=default;verticalAlign=middle;aspect=fixed;imageAspect=0;image=https://cdn-icons-png.freepik.com/512/2658/2658689.png;fontSize=3;strokeWidth=0;spacingBottom=8;" vertex="1" parent="1">
          <mxGeometry x="230.72" y="3975" width="13" height="13" as="geometry" />
        </mxCell>
        <mxCell id="gQ4FWM6OQZPmFA2LJ3ut-155" value="App Instance" style="shape=image;verticalLabelPosition=bottom;labelBackgroundColor=default;verticalAlign=middle;aspect=fixed;imageAspect=0;image=https://cdn-icons-png.freepik.com/512/2658/2658689.png;fontSize=3;strokeWidth=0;spacingBottom=8;" vertex="1" parent="1">
          <mxGeometry x="250.72000000000003" y="3975" width="13" height="13" as="geometry" />
        </mxCell>
        <mxCell id="gQ4FWM6OQZPmFA2LJ3ut-156" value="App Instance" style="shape=image;verticalLabelPosition=bottom;labelBackgroundColor=default;verticalAlign=middle;aspect=fixed;imageAspect=0;image=https://cdn-icons-png.freepik.com/512/2658/2658689.png;fontSize=3;strokeWidth=0;spacingBottom=8;" vertex="1" parent="1">
          <mxGeometry x="269.72" y="3975" width="13" height="13" as="geometry" />
        </mxCell>
        <mxCell id="gQ4FWM6OQZPmFA2LJ3ut-157" value="App Instance" style="shape=image;verticalLabelPosition=bottom;labelBackgroundColor=default;verticalAlign=middle;aspect=fixed;imageAspect=0;image=https://cdn-icons-png.freepik.com/512/2658/2658689.png;fontSize=3;strokeWidth=0;spacingBottom=8;" vertex="1" parent="1">
          <mxGeometry x="288.71000000000004" y="3975" width="13" height="13" as="geometry" />
        </mxCell>
        <mxCell id="gQ4FWM6OQZPmFA2LJ3ut-158" value="App Instance" style="shape=image;verticalLabelPosition=bottom;labelBackgroundColor=default;verticalAlign=middle;aspect=fixed;imageAspect=0;image=https://cdn-icons-png.freepik.com/512/2658/2658689.png;fontSize=3;strokeWidth=0;spacingBottom=8;" vertex="1" parent="1">
          <mxGeometry x="307.71000000000004" y="3975" width="13" height="13" as="geometry" />
        </mxCell>
        <mxCell id="gQ4FWM6OQZPmFA2LJ3ut-159" value="App Instance" style="shape=image;verticalLabelPosition=bottom;labelBackgroundColor=default;verticalAlign=middle;aspect=fixed;imageAspect=0;image=https://cdn-icons-png.freepik.com/512/2658/2658689.png;fontSize=3;strokeWidth=0;spacingBottom=8;" vertex="1" parent="1">
          <mxGeometry x="327.71000000000004" y="3975" width="13" height="13" as="geometry" />
        </mxCell>
        <mxCell id="gQ4FWM6OQZPmFA2LJ3ut-160" value="App Instance" style="shape=image;verticalLabelPosition=bottom;labelBackgroundColor=default;verticalAlign=middle;aspect=fixed;imageAspect=0;image=https://cdn-icons-png.freepik.com/512/2658/2658689.png;fontSize=3;strokeWidth=0;spacingBottom=8;" vertex="1" parent="1">
          <mxGeometry x="346.71000000000004" y="3975" width="13" height="13" as="geometry" />
        </mxCell>
        <mxCell id="gQ4FWM6OQZPmFA2LJ3ut-161" value="App Instance" style="shape=image;verticalLabelPosition=bottom;labelBackgroundColor=default;verticalAlign=middle;aspect=fixed;imageAspect=0;image=https://cdn-icons-png.freepik.com/512/2658/2658689.png;fontSize=3;strokeWidth=0;spacingBottom=8;" vertex="1" parent="1">
          <mxGeometry x="365.71000000000004" y="3975" width="13" height="13" as="geometry" />
        </mxCell>
        <mxCell id="gQ4FWM6OQZPmFA2LJ3ut-162" value="App Instance" style="shape=image;verticalLabelPosition=bottom;labelBackgroundColor=default;verticalAlign=middle;aspect=fixed;imageAspect=0;image=https://cdn-icons-png.freepik.com/512/2658/2658689.png;fontSize=3;strokeWidth=0;spacingBottom=8;" vertex="1" parent="1">
          <mxGeometry x="384.71000000000004" y="3975" width="13" height="13" as="geometry" />
        </mxCell>
        <mxCell id="gQ4FWM6OQZPmFA2LJ3ut-163" value="App Instance" style="shape=image;verticalLabelPosition=bottom;labelBackgroundColor=default;verticalAlign=middle;aspect=fixed;imageAspect=0;image=https://cdn-icons-png.freepik.com/512/2658/2658689.png;fontSize=3;strokeWidth=0;spacingBottom=8;" vertex="1" parent="1">
          <mxGeometry x="404.71000000000004" y="3975" width="13" height="13" as="geometry" />
        </mxCell>
        <mxCell id="gQ4FWM6OQZPmFA2LJ3ut-164" value="App Instance" style="shape=image;verticalLabelPosition=bottom;labelBackgroundColor=default;verticalAlign=middle;aspect=fixed;imageAspect=0;image=https://cdn-icons-png.freepik.com/512/2658/2658689.png;fontSize=3;strokeWidth=0;spacingBottom=8;" vertex="1" parent="1">
          <mxGeometry x="423.71000000000004" y="3975" width="13" height="13" as="geometry" />
        </mxCell>
        <mxCell id="gQ4FWM6OQZPmFA2LJ3ut-165" value="App Instance" style="shape=image;verticalLabelPosition=bottom;labelBackgroundColor=default;verticalAlign=middle;aspect=fixed;imageAspect=0;image=https://cdn-icons-png.freepik.com/512/2658/2658689.png;fontSize=3;strokeWidth=0;spacingBottom=8;" vertex="1" parent="1">
          <mxGeometry x="442.72" y="3975" width="13" height="13" as="geometry" />
        </mxCell>
        <mxCell id="gQ4FWM6OQZPmFA2LJ3ut-166" value="App Instance" style="shape=image;verticalLabelPosition=bottom;labelBackgroundColor=default;verticalAlign=middle;aspect=fixed;imageAspect=0;image=https://cdn-icons-png.freepik.com/512/2658/2658689.png;fontSize=3;strokeWidth=0;spacingBottom=8;" vertex="1" parent="1">
          <mxGeometry x="134.72" y="3994" width="13" height="13" as="geometry" />
        </mxCell>
        <mxCell id="gQ4FWM6OQZPmFA2LJ3ut-167" value="App Instance" style="shape=image;verticalLabelPosition=bottom;labelBackgroundColor=default;verticalAlign=middle;aspect=fixed;imageAspect=0;image=https://cdn-icons-png.freepik.com/512/2658/2658689.png;fontSize=3;strokeWidth=0;spacingBottom=8;" vertex="1" parent="1">
          <mxGeometry x="153.72" y="3994" width="13" height="13" as="geometry" />
        </mxCell>
        <mxCell id="gQ4FWM6OQZPmFA2LJ3ut-168" value="App Instance" style="shape=image;verticalLabelPosition=bottom;labelBackgroundColor=default;verticalAlign=middle;aspect=fixed;imageAspect=0;image=https://cdn-icons-png.freepik.com/512/2658/2658689.png;fontSize=3;strokeWidth=0;spacingBottom=8;" vertex="1" parent="1">
          <mxGeometry x="173.72" y="3994" width="13" height="13" as="geometry" />
        </mxCell>
        <mxCell id="gQ4FWM6OQZPmFA2LJ3ut-169" value="App Instance" style="shape=image;verticalLabelPosition=bottom;labelBackgroundColor=default;verticalAlign=middle;aspect=fixed;imageAspect=0;image=https://cdn-icons-png.freepik.com/512/2658/2658689.png;fontSize=3;strokeWidth=0;spacingBottom=8;" vertex="1" parent="1">
          <mxGeometry x="192.72" y="3994" width="13" height="13" as="geometry" />
        </mxCell>
        <mxCell id="gQ4FWM6OQZPmFA2LJ3ut-170" value="App Instance" style="shape=image;verticalLabelPosition=bottom;labelBackgroundColor=default;verticalAlign=middle;aspect=fixed;imageAspect=0;image=https://cdn-icons-png.freepik.com/512/2658/2658689.png;fontSize=3;strokeWidth=0;spacingBottom=8;" vertex="1" parent="1">
          <mxGeometry x="211.72" y="3994" width="13" height="13" as="geometry" />
        </mxCell>
        <mxCell id="gQ4FWM6OQZPmFA2LJ3ut-171" value="App Instance" style="shape=image;verticalLabelPosition=bottom;labelBackgroundColor=default;verticalAlign=middle;aspect=fixed;imageAspect=0;image=https://cdn-icons-png.freepik.com/512/2658/2658689.png;fontSize=3;strokeWidth=0;spacingBottom=8;" vertex="1" parent="1">
          <mxGeometry x="230.72" y="3994" width="13" height="13" as="geometry" />
        </mxCell>
        <mxCell id="gQ4FWM6OQZPmFA2LJ3ut-172" value="App Instance" style="shape=image;verticalLabelPosition=bottom;labelBackgroundColor=default;verticalAlign=middle;aspect=fixed;imageAspect=0;image=https://cdn-icons-png.freepik.com/512/2658/2658689.png;fontSize=3;strokeWidth=0;spacingBottom=8;" vertex="1" parent="1">
          <mxGeometry x="250.72000000000003" y="3994" width="13" height="13" as="geometry" />
        </mxCell>
        <mxCell id="gQ4FWM6OQZPmFA2LJ3ut-173" value="App Instance" style="shape=image;verticalLabelPosition=bottom;labelBackgroundColor=default;verticalAlign=middle;aspect=fixed;imageAspect=0;image=https://cdn-icons-png.freepik.com/512/2658/2658689.png;fontSize=3;strokeWidth=0;spacingBottom=8;" vertex="1" parent="1">
          <mxGeometry x="269.72" y="3994" width="13" height="13" as="geometry" />
        </mxCell>
        <mxCell id="gQ4FWM6OQZPmFA2LJ3ut-174" value="App Instance" style="shape=image;verticalLabelPosition=bottom;labelBackgroundColor=default;verticalAlign=middle;aspect=fixed;imageAspect=0;image=https://cdn-icons-png.freepik.com/512/2658/2658689.png;fontSize=3;strokeWidth=0;spacingBottom=8;" vertex="1" parent="1">
          <mxGeometry x="288.71000000000004" y="3994" width="13" height="13" as="geometry" />
        </mxCell>
        <mxCell id="gQ4FWM6OQZPmFA2LJ3ut-175" value="App Instance" style="shape=image;verticalLabelPosition=bottom;labelBackgroundColor=default;verticalAlign=middle;aspect=fixed;imageAspect=0;image=https://cdn-icons-png.freepik.com/512/2658/2658689.png;fontSize=3;strokeWidth=0;spacingBottom=8;" vertex="1" parent="1">
          <mxGeometry x="307.71000000000004" y="3994" width="13" height="13" as="geometry" />
        </mxCell>
        <mxCell id="gQ4FWM6OQZPmFA2LJ3ut-176" value="App Instance" style="shape=image;verticalLabelPosition=bottom;labelBackgroundColor=default;verticalAlign=middle;aspect=fixed;imageAspect=0;image=https://cdn-icons-png.freepik.com/512/2658/2658689.png;fontSize=3;strokeWidth=0;spacingBottom=8;" vertex="1" parent="1">
          <mxGeometry x="327.71000000000004" y="3994" width="13" height="13" as="geometry" />
        </mxCell>
        <mxCell id="gQ4FWM6OQZPmFA2LJ3ut-177" value="App Instance" style="shape=image;verticalLabelPosition=bottom;labelBackgroundColor=default;verticalAlign=middle;aspect=fixed;imageAspect=0;image=https://cdn-icons-png.freepik.com/512/2658/2658689.png;fontSize=3;strokeWidth=0;spacingBottom=8;" vertex="1" parent="1">
          <mxGeometry x="346.71000000000004" y="3994" width="13" height="13" as="geometry" />
        </mxCell>
        <mxCell id="gQ4FWM6OQZPmFA2LJ3ut-178" value="App Instance" style="shape=image;verticalLabelPosition=bottom;labelBackgroundColor=default;verticalAlign=middle;aspect=fixed;imageAspect=0;image=https://cdn-icons-png.freepik.com/512/2658/2658689.png;fontSize=3;strokeWidth=0;spacingBottom=8;" vertex="1" parent="1">
          <mxGeometry x="365.71000000000004" y="3994" width="13" height="13" as="geometry" />
        </mxCell>
        <mxCell id="gQ4FWM6OQZPmFA2LJ3ut-179" value="App Instance" style="shape=image;verticalLabelPosition=bottom;labelBackgroundColor=default;verticalAlign=middle;aspect=fixed;imageAspect=0;image=https://cdn-icons-png.freepik.com/512/2658/2658689.png;fontSize=3;strokeWidth=0;spacingBottom=8;" vertex="1" parent="1">
          <mxGeometry x="384.71000000000004" y="3994" width="13" height="13" as="geometry" />
        </mxCell>
        <mxCell id="gQ4FWM6OQZPmFA2LJ3ut-180" value="App Instance" style="shape=image;verticalLabelPosition=bottom;labelBackgroundColor=default;verticalAlign=middle;aspect=fixed;imageAspect=0;image=https://cdn-icons-png.freepik.com/512/2658/2658689.png;fontSize=3;strokeWidth=0;spacingBottom=8;" vertex="1" parent="1">
          <mxGeometry x="404.71000000000004" y="3994" width="13" height="13" as="geometry" />
        </mxCell>
        <mxCell id="gQ4FWM6OQZPmFA2LJ3ut-181" value="App Instance" style="shape=image;verticalLabelPosition=bottom;labelBackgroundColor=default;verticalAlign=middle;aspect=fixed;imageAspect=0;image=https://cdn-icons-png.freepik.com/512/2658/2658689.png;fontSize=3;strokeWidth=0;spacingBottom=8;" vertex="1" parent="1">
          <mxGeometry x="423.71000000000004" y="3994" width="13" height="13" as="geometry" />
        </mxCell>
        <mxCell id="gQ4FWM6OQZPmFA2LJ3ut-182" value="App Instance" style="shape=image;verticalLabelPosition=bottom;labelBackgroundColor=default;verticalAlign=middle;aspect=fixed;imageAspect=0;image=https://cdn-icons-png.freepik.com/512/2658/2658689.png;fontSize=3;strokeWidth=0;spacingBottom=8;" vertex="1" parent="1">
          <mxGeometry x="442.72" y="3994" width="13" height="13" as="geometry" />
        </mxCell>
        <mxCell id="gQ4FWM6OQZPmFA2LJ3ut-183" value="App Instance" style="shape=image;verticalLabelPosition=bottom;labelBackgroundColor=default;verticalAlign=middle;aspect=fixed;imageAspect=0;image=https://cdn-icons-png.freepik.com/512/2658/2658689.png;fontSize=3;strokeWidth=0;spacingBottom=8;" vertex="1" parent="1">
          <mxGeometry x="134.71" y="4012" width="13" height="13" as="geometry" />
        </mxCell>
        <mxCell id="gQ4FWM6OQZPmFA2LJ3ut-184" value="App Instance" style="shape=image;verticalLabelPosition=bottom;labelBackgroundColor=default;verticalAlign=middle;aspect=fixed;imageAspect=0;image=https://cdn-icons-png.freepik.com/512/2658/2658689.png;fontSize=3;strokeWidth=0;spacingBottom=8;" vertex="1" parent="1">
          <mxGeometry x="153.71" y="4012" width="13" height="13" as="geometry" />
        </mxCell>
        <mxCell id="gQ4FWM6OQZPmFA2LJ3ut-185" value="App Instance" style="shape=image;verticalLabelPosition=bottom;labelBackgroundColor=default;verticalAlign=middle;aspect=fixed;imageAspect=0;image=https://cdn-icons-png.freepik.com/512/2658/2658689.png;fontSize=3;strokeWidth=0;spacingBottom=8;" vertex="1" parent="1">
          <mxGeometry x="173.71" y="4012" width="13" height="13" as="geometry" />
        </mxCell>
        <mxCell id="gQ4FWM6OQZPmFA2LJ3ut-186" value="App Instance" style="shape=image;verticalLabelPosition=bottom;labelBackgroundColor=default;verticalAlign=middle;aspect=fixed;imageAspect=0;image=https://cdn-icons-png.freepik.com/512/2658/2658689.png;fontSize=3;strokeWidth=0;spacingBottom=8;" vertex="1" parent="1">
          <mxGeometry x="192.71" y="4012" width="13" height="13" as="geometry" />
        </mxCell>
        <mxCell id="gQ4FWM6OQZPmFA2LJ3ut-187" value="App Instance" style="shape=image;verticalLabelPosition=bottom;labelBackgroundColor=default;verticalAlign=middle;aspect=fixed;imageAspect=0;image=https://cdn-icons-png.freepik.com/512/2658/2658689.png;fontSize=3;strokeWidth=0;spacingBottom=8;" vertex="1" parent="1">
          <mxGeometry x="211.71" y="4012" width="13" height="13" as="geometry" />
        </mxCell>
        <mxCell id="gQ4FWM6OQZPmFA2LJ3ut-188" value="App Instance" style="shape=image;verticalLabelPosition=bottom;labelBackgroundColor=default;verticalAlign=middle;aspect=fixed;imageAspect=0;image=https://cdn-icons-png.freepik.com/512/2658/2658689.png;fontSize=3;strokeWidth=0;spacingBottom=8;" vertex="1" parent="1">
          <mxGeometry x="230.71" y="4012" width="13" height="13" as="geometry" />
        </mxCell>
        <mxCell id="gQ4FWM6OQZPmFA2LJ3ut-189" value="App Instance" style="shape=image;verticalLabelPosition=bottom;labelBackgroundColor=default;verticalAlign=middle;aspect=fixed;imageAspect=0;image=https://cdn-icons-png.freepik.com/512/2658/2658689.png;fontSize=3;strokeWidth=0;spacingBottom=8;" vertex="1" parent="1">
          <mxGeometry x="250.71000000000004" y="4012" width="13" height="13" as="geometry" />
        </mxCell>
        <mxCell id="gQ4FWM6OQZPmFA2LJ3ut-190" value="App Instance" style="shape=image;verticalLabelPosition=bottom;labelBackgroundColor=default;verticalAlign=middle;aspect=fixed;imageAspect=0;image=https://cdn-icons-png.freepik.com/512/2658/2658689.png;fontSize=3;strokeWidth=0;spacingBottom=8;" vertex="1" parent="1">
          <mxGeometry x="269.71000000000004" y="4012" width="13" height="13" as="geometry" />
        </mxCell>
        <mxCell id="gQ4FWM6OQZPmFA2LJ3ut-191" value="App Instance" style="shape=image;verticalLabelPosition=bottom;labelBackgroundColor=default;verticalAlign=middle;aspect=fixed;imageAspect=0;image=https://cdn-icons-png.freepik.com/512/2658/2658689.png;fontSize=3;strokeWidth=0;spacingBottom=8;" vertex="1" parent="1">
          <mxGeometry x="288.70000000000005" y="4012" width="13" height="13" as="geometry" />
        </mxCell>
        <mxCell id="gQ4FWM6OQZPmFA2LJ3ut-192" value="App Instance" style="shape=image;verticalLabelPosition=bottom;labelBackgroundColor=default;verticalAlign=middle;aspect=fixed;imageAspect=0;image=https://cdn-icons-png.freepik.com/512/2658/2658689.png;fontSize=3;strokeWidth=0;spacingBottom=8;" vertex="1" parent="1">
          <mxGeometry x="307.70000000000005" y="4012" width="13" height="13" as="geometry" />
        </mxCell>
        <mxCell id="gQ4FWM6OQZPmFA2LJ3ut-193" value="App Instance" style="shape=image;verticalLabelPosition=bottom;labelBackgroundColor=default;verticalAlign=middle;aspect=fixed;imageAspect=0;image=https://cdn-icons-png.freepik.com/512/2658/2658689.png;fontSize=3;strokeWidth=0;spacingBottom=8;" vertex="1" parent="1">
          <mxGeometry x="327.70000000000005" y="4012" width="13" height="13" as="geometry" />
        </mxCell>
        <mxCell id="gQ4FWM6OQZPmFA2LJ3ut-194" value="App Instance" style="shape=image;verticalLabelPosition=bottom;labelBackgroundColor=default;verticalAlign=middle;aspect=fixed;imageAspect=0;image=https://cdn-icons-png.freepik.com/512/2658/2658689.png;fontSize=3;strokeWidth=0;spacingBottom=8;" vertex="1" parent="1">
          <mxGeometry x="346.70000000000005" y="4012" width="13" height="13" as="geometry" />
        </mxCell>
        <mxCell id="gQ4FWM6OQZPmFA2LJ3ut-195" value="App Instance" style="shape=image;verticalLabelPosition=bottom;labelBackgroundColor=default;verticalAlign=middle;aspect=fixed;imageAspect=0;image=https://cdn-icons-png.freepik.com/512/2658/2658689.png;fontSize=3;strokeWidth=0;spacingBottom=8;" vertex="1" parent="1">
          <mxGeometry x="365.70000000000005" y="4012" width="13" height="13" as="geometry" />
        </mxCell>
        <mxCell id="gQ4FWM6OQZPmFA2LJ3ut-196" value="App Instance" style="shape=image;verticalLabelPosition=bottom;labelBackgroundColor=default;verticalAlign=middle;aspect=fixed;imageAspect=0;image=https://cdn-icons-png.freepik.com/512/2658/2658689.png;fontSize=3;strokeWidth=0;spacingBottom=8;" vertex="1" parent="1">
          <mxGeometry x="384.70000000000005" y="4012" width="13" height="13" as="geometry" />
        </mxCell>
        <mxCell id="gQ4FWM6OQZPmFA2LJ3ut-197" value="App Instance" style="shape=image;verticalLabelPosition=bottom;labelBackgroundColor=default;verticalAlign=middle;aspect=fixed;imageAspect=0;image=https://cdn-icons-png.freepik.com/512/2658/2658689.png;fontSize=3;strokeWidth=0;spacingBottom=8;" vertex="1" parent="1">
          <mxGeometry x="404.70000000000005" y="4012" width="13" height="13" as="geometry" />
        </mxCell>
        <mxCell id="gQ4FWM6OQZPmFA2LJ3ut-198" value="App Instance" style="shape=image;verticalLabelPosition=bottom;labelBackgroundColor=default;verticalAlign=middle;aspect=fixed;imageAspect=0;image=https://cdn-icons-png.freepik.com/512/2658/2658689.png;fontSize=3;strokeWidth=0;spacingBottom=8;" vertex="1" parent="1">
          <mxGeometry x="423.70000000000005" y="4012" width="13" height="13" as="geometry" />
        </mxCell>
        <mxCell id="gQ4FWM6OQZPmFA2LJ3ut-199" value="App Instance" style="shape=image;verticalLabelPosition=bottom;labelBackgroundColor=default;verticalAlign=middle;aspect=fixed;imageAspect=0;image=https://cdn-icons-png.freepik.com/512/2658/2658689.png;fontSize=3;strokeWidth=0;spacingBottom=8;" vertex="1" parent="1">
          <mxGeometry x="442.71000000000004" y="4012" width="13" height="13" as="geometry" />
        </mxCell>
        <mxCell id="gQ4FWM6OQZPmFA2LJ3ut-200" value="US NW Nas 5" style="image;points=[];aspect=fixed;html=1;align=center;shadow=0;dashed=0;image=img/lib/allied_telesis/storage/Datacenter_Server_Storage_Unit_Large.svg;" vertex="1" parent="1">
          <mxGeometry x="-17" y="3910" width="48.48" height="50" as="geometry" />
        </mxCell>
        <mxCell id="gQ4FWM6OQZPmFA2LJ3ut-201" value="US NW Nas 6" style="image;points=[];aspect=fixed;html=1;align=center;shadow=0;dashed=0;image=img/lib/allied_telesis/storage/Datacenter_Server_Storage_Unit_Large.svg;" vertex="1" parent="1">
          <mxGeometry x="-17" y="3987" width="48.48" height="50" as="geometry" />
        </mxCell>
        <mxCell id="gQ4FWM6OQZPmFA2LJ3ut-123" value="" style="group" vertex="1" connectable="0" parent="1">
          <mxGeometry x="112" y="3943" width="16" height="14" as="geometry" />
        </mxCell>
        <mxCell id="gQ4FWM6OQZPmFA2LJ3ut-120" value="" style="rounded=1;whiteSpace=wrap;html=1;" vertex="1" parent="gQ4FWM6OQZPmFA2LJ3ut-123">
          <mxGeometry width="16" height="14" as="geometry" />
        </mxCell>
        <mxCell id="gQ4FWM6OQZPmFA2LJ3ut-122" value="" style="image;sketch=0;aspect=fixed;html=1;points=[];align=center;fontSize=12;image=img/lib/mscae/Docker.svg;" vertex="1" parent="gQ4FWM6OQZPmFA2LJ3ut-123">
          <mxGeometry x="3.4000000000000004" y="2.981999999999941" width="9.8" height="8.036" as="geometry" />
        </mxCell>
        <mxCell id="gQ4FWM6OQZPmFA2LJ3ut-202" value="DataCenter" style="rounded=1;whiteSpace=wrap;html=1;" vertex="1" parent="1">
          <mxGeometry x="2460" y="5120" width="120" height="60" as="geometry" />
        </mxCell>
        <mxCell id="gQ4FWM6OQZPmFA2LJ3ut-203" value="DataCenter" style="rounded=1;whiteSpace=wrap;html=1;" vertex="1" parent="1">
          <mxGeometry x="2460" y="6300" width="120" height="60" as="geometry" />
        </mxCell>
        <mxCell id="gQ4FWM6OQZPmFA2LJ3ut-204" value="DataCenter" style="rounded=1;whiteSpace=wrap;html=1;" vertex="1" parent="1">
          <mxGeometry x="4670" y="3570" width="120" height="60" as="geometry" />
        </mxCell>
        <mxCell id="gQ4FWM6OQZPmFA2LJ3ut-205" value="DataCenter" style="rounded=1;whiteSpace=wrap;html=1;" vertex="1" parent="1">
          <mxGeometry x="8865" y="3420" width="120" height="60" as="geometry" />
        </mxCell>
        <mxCell id="gQ4FWM6OQZPmFA2LJ3ut-207" value="DataCenter" style="rounded=1;whiteSpace=wrap;html=1;" vertex="1" parent="1">
          <mxGeometry x="8875" y="6070" width="120" height="60" as="geometry" />
        </mxCell>
      </root>
    </mxGraphModel>
  </diagram>
</mxfile>
